<svg width="483" height="158" viewBox="0 0 483 158" fill="none" xmlns="http://www.w3.org/2000/svg">
<path d="M8.08151 37.9354H25.9386L37.8752 65.8476H46.3317L33.6453 35.9619C41.1644 33.8929 45.6738 27.0351 45.6738 19.4204C45.6738 13.9702 43.138 8.61203 38.8125 5.32284C34.4906 2.03364 29.4153 1.37579 24.1526 1.37579H0V65.844H8.08151V37.9354ZM8.08151 8.33263H24.1526C27.5337 8.33263 30.2606 8.42812 33.0794 10.4016C36.1811 12.4671 37.5923 15.5688 37.5923 19.3284C37.5923 22.4302 36.5596 25.5319 34.3031 27.7849C31.1059 31.0741 27.5373 31.357 23.2118 31.357H8.08151V8.33263Z" fill="black"/>
<path d="M66.905 1.37933H58.8235V65.8476H66.905V1.37933Z" fill="black"/>
<path d="M105.247 65.8476L127.051 1.37933H120.003L102.145 54.5688L84.1963 1.37933H75.7399L97.5405 65.8476H105.247Z" fill="black"/>
<path d="M177.418 58.8943H143.777V35.304H169.712V28.8211H143.777V8.33263H176.481V1.37933H135.692V65.8476H177.418V58.8943Z" fill="black"/>
<path d="M196.025 37.9354H213.883L225.819 65.8476H234.276L221.589 35.9619C229.108 33.8929 233.618 27.0351 233.618 19.4204C233.618 13.9702 231.082 8.61203 226.756 5.32284C222.434 2.03364 217.359 1.37579 212.096 1.37579H187.944V65.844H196.025V37.9354ZM196.025 8.33263H212.096C215.478 8.33263 218.204 8.42812 221.023 10.4016C224.125 12.4671 225.536 15.5688 225.536 19.3284C225.536 22.4302 224.503 25.5319 222.247 27.7849C219.05 31.0741 215.481 31.357 211.156 31.357H196.025V8.33263Z" fill="black"/>
<path d="M9.0647 156.831H13.5988V139.695H28.2022V136.056H13.5988V124.561H31.2084V120.66H9.0647V156.831Z" fill="black"/>
<path d="M49.6103 120.66L37.9036 156.831H41.6985L44.917 146.284H58.3107L61.9501 156.831H66.5903L54.8305 120.66H49.6103ZM46.1831 142.857L51.7712 125.509L57.3063 142.857H46.1831Z" fill="black"/>
<path d="M96.8014 149.605L85.8869 120.66H79.1387V156.831H82.9337V125.248H83.1459L94.8526 156.831H97.9084L109.353 125.248H109.562V156.831H114.096V120.66H107.454L96.8014 149.605Z" fill="black"/>
<path d="M135.292 120.66H130.758V156.831H135.292V120.66Z" fill="black"/>
<path d="M155.752 120.66H151.218V156.831H172.573V152.824H155.752V120.66Z" fill="black"/>
<path d="M192.715 137.322L183.12 120.66H177.846L189.921 141.591V156.831H194.455V141.591L206.53 120.66H202.416L192.715 137.322Z" fill="black"/>
<path d="M269.735 65.4125L279.886 22.7485H280.073L290.599 65.4125H305.446L321.612 0.944275H309.206L299.808 41.5428L299.246 44.3616H299.058L288.25 0.944275H274.34L263.91 44.3616H263.723L253.855 0.944275H238.442L255.075 65.4125H269.735Z" fill="black"/>
<path d="M374.611 52.9135H343.597V38.6285H368.033V26.508H343.597V13.4432H374.611V0.944275H328.562V65.4125H374.611V52.9135Z" fill="black"/>
<path d="M404.865 54.4167C398.191 54.4167 393.306 52.0683 391.425 45.3025L377.515 48.4962C380.429 61.0906 391.425 66.3533 403.549 66.3533C410.032 66.3533 417.081 65.1296 422.251 61.0906C427.231 57.2391 430.241 51.223 430.241 44.9276C430.241 38.5366 427.047 33.182 421.781 29.7018C417.271 26.6955 410.223 25.3799 404.96 24.2516C401.296 23.5938 395.655 22.4655 395.655 17.7652C395.655 12.7854 400.543 11.7491 404.582 11.7491C410.315 11.7491 413.791 13.9101 415.669 19.3603L428.451 15.1303C424.504 3.94702 415.294 0 404.016 0C398.095 0 392.55 1.31568 387.849 5.26271C383.244 9.11425 380.896 14.3805 380.896 20.393C380.896 34.4906 392.171 37.8717 403.637 40.2237C407.584 41.069 414.916 42.1017 414.916 47.4599C414.923 52.8216 409.19 54.4167 404.865 54.4167Z" fill="black"/>
<path d="M434.842 0.944275V13.7262H451.193V65.4125H466.231V13.7262H482.394V0.944275H434.842Z" fill="black"/>
<path d="M217.522 156.778H225.932V142.694H239.648V135.918H225.932V127.72H243.167V120.731H217.522V156.778Z" fill="black"/>
<path d="M262.548 120.731H254.142V156.778H262.548V120.731Z" fill="black"/>
<path d="M275.21 127.875H284.353V156.778H292.76V127.875H301.799V120.731H275.21V127.875Z" fill="black"/>
<path d="M335.424 141.906H335.317L323.285 120.731H314.192V156.778H320.711V132.555H320.919L334.741 156.778H341.938V120.731H335.424V141.906Z" fill="black"/>
<path d="M356.906 156.778H382.657V149.789H365.313V141.803H378.979V135.023H365.313V127.72H382.657V120.731H356.906V156.778Z" fill="black"/>
<path d="M417.066 136.809C414.545 135.129 410.605 134.394 407.662 133.761C405.614 133.393 402.459 132.763 402.459 130.135C402.459 127.348 405.193 126.772 407.453 126.772C410.658 126.772 412.603 127.981 413.653 131.027L420.801 128.661C418.594 122.408 413.445 120.201 407.139 120.201C403.828 120.201 400.726 120.936 398.102 123.143C395.527 125.297 394.212 128.24 394.212 131.603C394.212 139.487 400.518 141.375 406.93 142.691C409.137 143.165 413.236 143.741 413.236 146.737C413.236 149.733 410.032 150.624 407.613 150.624C403.881 150.624 401.147 149.312 400.097 145.527L392.32 147.313C393.95 154.355 400.097 157.298 406.877 157.298C410.502 157.298 414.442 156.615 417.335 154.355C420.119 152.201 421.802 148.838 421.802 145.315C421.799 141.75 420.009 138.754 417.066 136.809Z" fill="black"/>
<path d="M456.629 136.809C454.107 135.129 450.167 134.394 447.224 133.761C445.177 133.393 442.022 132.763 442.022 130.135C442.022 127.348 444.756 126.772 447.016 126.772C450.22 126.772 452.165 127.981 453.216 131.027L460.364 128.661C458.157 122.408 453.007 120.201 446.701 120.201C443.391 120.201 440.289 120.936 437.665 123.143C435.09 125.297 433.774 128.24 433.774 131.603C433.774 139.487 440.08 141.375 446.492 142.691C448.699 143.165 452.798 143.741 452.798 146.737C452.798 149.733 449.594 150.624 447.175 150.624C443.444 150.624 440.71 149.312 439.659 145.527L431.882 147.313C433.512 154.355 439.659 157.298 446.439 157.298C450.064 157.298 454.004 156.615 456.897 154.355C459.681 152.201 461.364 148.838 461.364 145.315C461.357 141.75 459.571 138.754 456.629 136.809Z" fill="black"/>
<path d="M36.1635 81.7453C35.9866 81.5543 35.8664 81.4058 35.7992 81.3209L35.7391 81.2396L33.8009 78.2475L31.5515 81.0309C31.5232 81.0663 30.4233 82.3678 28.4427 83.6163C26.448 84.8718 23.6256 86.0708 19.9792 86.0743C19.4982 86.0743 18.9995 86.0531 18.4867 86.0071C14.6387 85.6641 12.0321 84.3802 10.3592 83.2166C9.52453 82.6366 8.93034 82.0813 8.56252 81.6958C8.37861 81.5013 8.24776 81.3527 8.17348 81.2608L8.10274 81.1724L8.0992 81.1653L6.86488 82.0601L8.11334 81.1865L3.84448 84.1786C3.97534 84.3661 5.07174 85.8869 7.38125 87.4961C9.68015 89.1053 13.2169 90.7817 18.034 91.2026C18.6989 91.2627 19.3497 91.2875 19.9863 91.2875C24.966 91.2875 28.8706 89.5687 31.4843 87.8675C32.2695 87.3546 32.9309 86.8489 33.4932 86.382C33.9353 86.764 34.4517 87.1637 35.0494 87.5704C37.465 89.2079 41.2246 90.8348 46.4696 91.0682C46.8197 91.0824 47.1593 91.0895 47.4953 91.0895C52.5599 91.093 56.4256 89.3387 58.9509 87.581C59.5733 87.1495 60.1145 86.718 60.5849 86.3113C61.0376 86.7781 61.5645 87.2733 62.1729 87.779C64.5531 89.7526 68.249 91.8287 73.1828 92.0762C73.4764 92.0904 73.7664 92.0974 74.0529 92.0974C76.4543 92.0974 78.6613 91.5952 80.5959 90.8666C83.4996 89.7702 85.8091 88.1752 87.4254 86.8524C87.5845 86.7216 87.7296 86.5978 87.8781 86.4704C88.3662 86.9408 88.9356 87.4431 89.6146 87.9523C92.0904 89.8127 95.9632 91.6589 101.152 91.6518C101.286 91.6518 101.41 91.6518 101.526 91.6483H101.541C106.365 91.5634 110.202 89.7773 112.798 88.0514C113.615 87.5103 114.298 86.9762 114.878 86.4881C115.426 86.9727 116.077 87.4961 116.851 88.0301C119.394 89.7808 123.232 91.5669 128.18 91.6483L128.484 91.6518C130.967 91.6518 133.219 91.1425 135.161 90.3927C138.083 89.2645 140.325 87.6163 141.863 86.2476C142.019 86.1097 142.16 85.9788 142.302 85.8444C142.949 86.4209 143.727 87.0611 144.65 87.7189C146.023 88.6915 147.692 89.6783 149.634 90.4422C151.572 91.2062 153.786 91.7473 156.208 91.7897H156.212L156.491 91.7933C158.907 91.7933 161.1 91.2521 162.992 90.4634C165.836 89.2786 168.025 87.5598 169.535 86.1415L169.832 85.855C170.338 86.329 170.928 86.8382 171.622 87.3546C174.193 89.2751 178.154 91.2592 183.442 91.4962C183.749 91.5103 184.053 91.5174 184.354 91.5174C186.904 91.5174 189.157 91.0116 191.056 90.2406C193.882 89.0982 195.919 87.4112 197.27 85.9965C197.769 86.4598 198.353 86.955 199.021 87.4536C201.656 89.4166 205.72 91.4042 211.11 91.4962L211.4 91.4997C213.769 91.4997 215.913 90.9798 217.759 90.2194C220.532 89.077 222.65 87.4148 224.107 86.046L224.228 85.9293C224.719 86.4244 225.296 86.9514 225.971 87.4855C228.504 89.4944 232.454 91.5351 237.685 91.528C238.088 91.528 238.495 91.5174 238.905 91.4927C243.931 91.2026 247.655 89.1902 250.046 87.2592C250.559 86.8489 251.001 86.4422 251.401 86.0566C251.836 86.5093 252.334 86.9833 252.911 87.4643C255.369 89.5191 259.259 91.627 264.536 91.7862C264.755 91.7933 264.968 91.7968 265.18 91.7968C270.298 91.7968 274.326 89.8799 277.021 88.0019C277.958 87.3476 278.736 86.7039 279.366 86.1274C280.017 86.6437 280.805 87.2273 281.732 87.8286C284.42 89.5616 288.215 91.436 292.745 91.7791C293.096 91.8039 293.442 91.818 293.778 91.818C296.038 91.818 298.1 91.2698 299.876 90.4847C302.546 89.3034 304.608 87.6093 306.044 86.2158L306.228 86.0319C306.769 86.5518 307.405 87.1141 308.162 87.6835C310.822 89.696 314.907 91.7685 320.307 91.9277C320.534 91.9347 320.757 91.9383 320.976 91.9383C323.561 91.9383 325.814 91.4714 327.703 90.7499C330.426 89.7137 332.378 88.1752 333.676 86.8489C334.14 87.2733 334.667 87.7189 335.275 88.1681C337.804 90.0426 341.705 91.9347 346.83 91.9277C351.969 91.9312 355.951 90.0072 358.575 88.115C359.421 87.5067 360.121 86.9055 360.704 86.3573C361.309 86.8595 362.027 87.4183 362.869 87.9912C365.479 89.7561 369.2 91.6589 373.706 91.9241C373.964 91.9383 374.218 91.9454 374.473 91.9454C376.758 91.9454 378.88 91.3795 380.751 90.5837C383.559 89.3847 385.854 87.6729 387.488 86.2582C387.676 86.0955 387.853 85.9399 388.019 85.7843C388.613 86.3997 389.317 87.0823 390.148 87.7826C391.425 88.8472 392.974 89.9365 394.785 90.7818C396.596 91.6235 398.686 92.2212 400.978 92.2212H401.19H401.208C403.651 92.1788 405.89 91.5988 407.85 90.7888C410.789 89.5651 413.116 87.8285 414.739 86.3962C414.92 86.237 415.086 86.0849 415.248 85.9328C415.832 86.5023 416.525 87.1212 417.36 87.7543C420.041 89.7914 424.112 91.91 429.399 92.0762C429.541 92.0798 429.678 92.0833 429.816 92.0833C432.016 92.0833 434.05 91.5493 435.84 90.7959C438.527 89.6606 440.703 88.0408 442.248 86.7003C442.478 86.4987 442.69 86.3077 442.895 86.1203C443.437 86.5518 444.07 87.0257 444.812 87.5209C447.253 89.1442 450.761 90.9551 455.097 91.6129C455.822 91.7225 456.537 91.7721 457.237 91.7721C459.338 91.7721 461.294 91.3264 463.034 90.6898C465.644 89.7313 467.784 88.352 469.308 87.2096C470.829 86.0637 471.731 85.1512 471.798 85.0805L468.074 81.4341L468.144 81.5048L468.074 81.4341C467.996 81.5154 466.624 82.8665 464.579 84.1397C463.561 84.7763 462.376 85.3953 461.12 85.8409C459.865 86.2865 458.549 86.5624 457.237 86.5624C456.784 86.5624 456.332 86.5306 455.875 86.4634C452.554 85.9647 449.704 84.5252 447.705 83.1883C446.704 82.5234 445.919 81.8868 445.399 81.4305C445.138 81.2007 444.943 81.0203 444.819 80.9L444.689 80.7692L444.667 80.7444L442.665 78.6294L440.784 80.854C440.695 80.9602 439.291 82.5588 437.208 84.0548C436.168 84.8046 434.962 85.5261 433.7 86.0425C432.434 86.5624 431.121 86.8736 429.82 86.8736L429.565 86.8701C425.608 86.7463 422.598 85.1795 420.511 83.6056C419.475 82.8205 418.686 82.0389 418.17 81.4694C417.912 81.1865 417.724 80.9531 417.604 80.8045L417.48 80.6419L417.459 80.6135L415.478 77.7558L413.293 80.4721C413.211 80.5746 411.797 82.2652 409.568 83.8709C408.454 84.6737 407.146 85.4589 405.713 86.0354C404.281 86.6119 402.742 86.9868 401.119 87.0151H400.978C399.605 87.0151 398.265 86.6543 396.981 86.0602C395.064 85.176 393.331 83.7471 392.122 82.5376C391.517 81.9328 391.039 81.3881 390.721 81.0061C390.562 80.8151 390.445 80.6631 390.367 80.564L390.286 80.4579L390.272 80.4403L388.33 77.7346L386.173 80.267C386.162 80.2811 384.67 82 382.427 83.6375C381.31 84.4545 380.005 85.2502 378.639 85.8232C377.271 86.3962 375.856 86.7428 374.466 86.7428C374.307 86.7428 374.151 86.7392 373.992 86.7286C370.841 86.5589 367.916 85.1371 365.794 83.6905C364.736 82.9726 363.88 82.2581 363.307 81.7347C363.021 81.473 362.802 81.2608 362.664 81.1193L362.512 80.9637L362.483 80.9318L360.315 78.5445L358.441 81.1582C358.406 81.2077 357.316 82.6543 355.339 84.0265C353.344 85.4094 350.529 86.7215 346.826 86.7251C342.992 86.718 340.244 85.3599 338.366 83.9841C337.432 83.2979 336.739 82.6083 336.29 82.1061C336.067 81.8549 335.905 81.6534 335.806 81.526L335.707 81.3916L335.696 81.3739L333.284 77.7523L331.243 81.5897C331.24 81.5932 331.201 81.6675 331.109 81.8054C330.776 82.3112 329.836 83.5703 328.212 84.6632C326.578 85.756 324.297 86.7251 320.976 86.7357C320.81 86.7357 320.636 86.7322 320.463 86.7286C316.329 86.5978 313.333 85.0593 311.299 83.5314C310.288 82.771 309.531 82.0141 309.046 81.4659C308.802 81.1936 308.625 80.9708 308.516 80.8293L308.403 80.6772L308.385 80.6524L306.302 77.526L304.109 80.5817C304.109 80.5817 304.042 80.6772 303.9 80.8505C303.416 81.4588 302.093 82.9796 300.275 84.2741C299.366 84.9249 298.341 85.5155 297.244 85.9364C296.148 86.3573 294.991 86.6084 293.771 86.6084C293.555 86.6084 293.34 86.6013 293.12 86.5836C289.849 86.3502 286.779 84.9001 284.554 83.4536C283.444 82.7356 282.545 82.0282 281.941 81.5083C281.636 81.2502 281.407 81.038 281.258 80.9L281.099 80.7444L281.067 80.7126L278.97 78.5657L277.145 80.9354C277.106 80.9884 275.917 82.4597 273.841 83.8568C271.755 85.2609 268.84 86.5836 265.173 86.5836C265.014 86.5836 264.851 86.5801 264.692 86.5765C260.724 86.4457 258.039 84.9425 256.235 83.4571C255.341 82.7144 254.69 81.9787 254.272 81.4447C254.064 81.1794 253.919 80.9637 253.827 80.8293L253.735 80.6878L253.724 80.6666L251.549 76.8044L249.24 80.5923C249.218 80.6277 248.345 81.9823 246.605 83.3333C244.84 84.7021 242.258 86.0743 238.594 86.2936C238.279 86.3113 237.975 86.3219 237.678 86.3219C233.816 86.3148 231.078 84.8718 229.193 83.397C228.26 82.6613 227.563 81.9186 227.114 81.381C226.891 81.1122 226.728 80.893 226.629 80.7515L226.527 80.6029L226.512 80.5817L224.461 77.2501L222.183 80.4403L222.137 80.5004C221.897 80.8222 220.666 82.3501 218.763 83.7188C217.812 84.405 216.698 85.0557 215.463 85.5261C214.226 85.9965 212.875 86.2936 211.393 86.2936L211.195 86.2901C207.05 86.2123 204.107 84.7339 202.116 83.2697C201.129 82.5376 200.397 81.809 199.926 81.282C199.693 81.0203 199.523 80.8081 199.417 80.6701L199.311 80.5287L199.297 80.5075L196.963 76.9813L194.872 80.656C194.855 80.6949 193.956 82.1733 192.22 83.5632C191.346 84.2635 190.264 84.9496 188.97 85.4554C187.672 85.9611 186.154 86.3007 184.347 86.3007C184.128 86.3007 183.901 86.2971 183.675 86.2865C179.572 86.092 176.669 84.6066 174.727 83.1706C173.761 82.4527 173.051 81.7453 172.594 81.2396C172.368 80.9849 172.202 80.7833 172.103 80.6524L172.004 80.5181L171.993 80.5004L169.921 77.3951L167.724 80.4226L167.675 80.4898C167.413 80.8364 166.104 82.4385 164.11 83.8815C163.112 84.603 161.949 85.2856 160.668 85.7808C159.385 86.2759 157.995 86.5836 156.484 86.5836H156.286H156.29C154.592 86.5553 152.997 86.1733 151.536 85.5968C149.347 84.7374 147.473 83.4218 146.175 82.3218C145.527 81.7736 145.022 81.282 144.689 80.9389C144.523 80.7656 144.399 80.6312 144.321 80.5464L144.24 80.4544L144.226 80.4367L142.129 77.9185L140.155 80.5322L140.109 80.5923C139.854 80.9142 138.553 82.4421 136.512 83.8249C134.461 85.2149 131.734 86.4421 128.477 86.4421H128.257C124.537 86.3785 121.725 85.0593 119.79 83.7365C118.828 83.0787 118.1 82.4208 117.626 81.9469C117.389 81.71 117.216 81.5189 117.109 81.3952L117 81.2643L116.986 81.2466L115.012 78.6542L112.925 81.1582C112.89 81.2042 111.719 82.5482 109.711 83.8426C107.695 85.1442 104.886 86.3855 101.438 86.4421L101.137 86.4457C97.1798 86.4386 94.506 85.1052 92.7199 83.7825C91.8357 83.1211 91.1885 82.4597 90.7783 81.9858C90.5731 81.7489 90.4281 81.5579 90.3432 81.4376L90.2583 81.3138L90.2513 81.2997L88.3874 78.297L86.0743 80.9849C86.0743 80.9849 85.993 81.0769 85.8338 81.2466C85.275 81.8337 83.7578 83.3015 81.6604 84.5712C79.5561 85.848 76.9177 86.8984 74.0493 86.8949C73.8477 86.8949 73.6461 86.8913 73.441 86.8807C69.8512 86.6932 67.2623 85.229 65.4868 83.7719C64.6062 83.0433 63.9483 82.3253 63.5239 81.8054C63.3117 81.5437 63.1596 81.335 63.0641 81.2006L62.9686 81.0592L62.9545 81.038L60.9032 77.6674L58.6078 80.8929H58.6043C58.4805 81.0592 57.4583 82.3466 55.6051 83.5455C53.7412 84.748 51.0957 85.8798 47.4776 85.8833C47.2194 85.8833 46.9541 85.8763 46.6889 85.8656C42.3952 85.664 39.6543 84.4014 37.9531 83.259C37.1007 82.6755 36.5172 82.1238 36.1635 81.7453Z" fill="black"/>
<path d="M468.127 99.9279L468.056 99.8571C467.975 99.942 466.602 101.289 464.562 102.563C463.543 103.199 462.358 103.818 461.103 104.264C459.847 104.71 458.531 104.985 457.219 104.985C456.767 104.985 456.314 104.954 455.858 104.886C452.537 104.388 449.686 102.948 447.688 101.611C446.687 100.946 445.902 100.31 445.382 99.8536C445.12 99.6237 444.926 99.4433 444.802 99.3231L444.671 99.1922L444.65 99.1674L442.648 97.0525L440.766 99.2771C440.678 99.3832 439.274 100.982 437.191 102.478C436.151 103.228 434.945 103.949 433.682 104.466C432.416 104.985 431.104 105.297 429.802 105.297L429.548 105.293C425.59 105.169 422.58 103.603 420.493 102.029C419.457 101.244 418.669 100.462 418.152 99.8925C417.894 99.6096 417.707 99.3761 417.586 99.2276L417.462 99.0649L417.441 99.0366L415.457 96.1789L413.271 98.8951C413.19 98.9977 411.775 100.688 409.547 102.294C408.433 103.097 407.125 103.882 405.692 104.458C404.26 105.035 402.721 105.41 401.098 105.438H400.956C399.584 105.438 398.244 105.077 396.96 104.483C395.043 103.599 393.31 102.17 392.1 100.961C391.496 100.356 391.018 99.8111 390.7 99.4292C390.541 99.2382 390.424 99.0861 390.346 98.9871L390.265 98.881L390.251 98.8597L388.312 96.1541L386.151 98.69C386.127 98.7218 384.641 100.43 382.41 102.057C381.292 102.874 379.987 103.67 378.622 104.243C377.253 104.816 375.838 105.162 374.448 105.162C374.289 105.162 374.13 105.159 373.974 105.148C370.823 104.978 367.898 103.557 365.776 102.11C364.719 101.392 363.863 100.678 363.29 100.154C363.003 99.8925 362.784 99.6803 362.646 99.5388L362.494 99.3832L362.466 99.3514L360.298 96.964L358.423 99.5777C358.388 99.6308 357.299 101.074 355.321 102.446C353.327 103.829 350.511 105.141 346.808 105.145C342.975 105.138 340.227 103.779 338.348 102.404C337.415 101.717 336.722 101.028 336.272 100.526C336.05 100.274 335.887 100.073 335.788 99.9456L335.689 99.8112L335.675 99.7935L333.263 96.1754L331.222 100.013C331.218 100.016 331.18 100.091 331.088 100.228C330.755 100.734 329.814 101.993 328.191 103.086C326.557 104.179 324.276 105.148 320.955 105.159C320.788 105.159 320.615 105.155 320.445 105.152C316.311 105.021 313.315 103.482 311.282 101.954C310.27 101.19 309.513 100.437 309.029 99.889C308.785 99.6166 308.608 99.3938 308.498 99.2523L308.385 99.1003L308.367 99.0755L306.284 95.949L304.091 99.0048C304.091 99.0048 304.024 99.1003 303.883 99.2736C303.398 99.8819 302.075 101.403 300.258 102.697C299.349 103.348 298.323 103.939 297.227 104.359C296.13 104.78 294.974 105.031 293.753 105.031C293.538 105.031 293.322 105.024 293.103 105.007C289.831 104.773 286.761 103.323 284.537 101.877C283.426 101.159 282.528 100.451 281.923 99.9314C281.619 99.6732 281.389 99.461 281.24 99.3231L281.081 99.1674L281.049 99.1356L278.952 96.9888L277.124 99.3584C277.085 99.4115 275.896 100.883 273.82 102.28C271.733 103.684 268.819 105.007 265.152 105.007C264.992 105.007 264.833 105.003 264.671 105C260.702 104.869 258.018 103.366 256.214 101.88C255.319 101.137 254.669 100.402 254.251 99.8677C254.043 99.6025 253.898 99.3867 253.806 99.2523L253.714 99.1109L253.703 99.0896L251.528 95.2275L249.218 99.0154C249.197 99.0508 248.324 100.405 246.584 101.756C244.819 103.125 242.237 104.497 238.573 104.717C238.258 104.734 237.954 104.745 237.657 104.745C233.795 104.738 231.057 103.295 229.172 101.82C228.238 101.084 227.542 100.342 227.092 99.8041C226.87 99.5353 226.707 99.316 226.608 99.1745L226.505 99.026L226.491 99.0048L224.44 95.6731L222.162 98.8633L222.116 98.9234C221.876 99.2453 220.645 100.773 218.742 102.142C217.791 102.828 216.677 103.479 215.442 103.949C214.204 104.42 212.853 104.717 211.371 104.717H211.173C207.028 104.639 204.086 103.16 202.094 101.696C201.108 100.964 200.376 100.236 199.905 99.7086C199.672 99.4469 199.502 99.2347 199.396 99.0967L199.29 98.9552L199.276 98.934L196.941 95.4079L194.851 99.0826C194.833 99.1215 193.935 100.6 192.199 101.99C191.325 102.69 190.243 103.376 188.948 103.882C187.65 104.388 186.133 104.727 184.326 104.727C184.106 104.727 183.88 104.724 183.654 104.713C179.551 104.519 176.647 103.033 174.706 101.597C173.74 100.879 173.029 100.172 172.573 99.6661C172.347 99.4115 172.18 99.2099 172.081 99.079L171.982 98.9446L171.972 98.927L169.899 95.8217L167.703 98.8491L167.653 98.9163C167.392 99.2629 166.083 100.865 164.088 102.308C163.091 103.03 161.927 103.712 160.647 104.207C159.363 104.702 157.973 105.01 156.463 105.01H156.265H156.269C154.571 104.982 152.976 104.6 151.515 104.023C149.326 103.164 147.451 101.845 146.153 100.748C145.506 100.2 145 99.7086 144.668 99.3655C144.502 99.1922 144.378 99.0578 144.3 98.9729L144.219 98.881L144.205 98.8633L142.107 96.3451L140.134 98.9588L140.088 99.0189C139.833 99.3408 138.532 100.869 136.491 102.251C134.44 103.641 131.713 104.869 128.455 104.869L128.236 104.865C124.515 104.802 121.704 103.482 119.769 102.16C118.807 101.502 118.079 100.844 117.605 100.37C117.368 100.133 117.194 99.942 117.088 99.8182L116.979 99.6873L116.964 99.6697L114.991 97.0772L112.901 99.5848C112.858 99.6379 111.691 100.975 109.689 102.266C107.673 103.567 104.865 104.809 101.417 104.865L101.116 104.869C97.1586 104.862 94.4848 103.528 92.6987 102.206C91.8145 101.544 91.1673 100.883 90.757 100.409C90.5519 100.172 90.4069 99.9809 90.322 99.8607L90.2371 99.7369L90.2301 99.7227L88.3662 96.72L86.0531 99.408C86.0531 99.408 85.9718 99.4999 85.8126 99.6697C85.2538 100.257 83.7365 101.725 81.6392 102.994C79.5349 104.271 76.8964 105.321 74.0281 105.318C73.8265 105.318 73.6249 105.314 73.4198 105.304C69.83 105.116 67.2411 103.652 65.4656 102.195C64.5849 101.47 63.9271 100.748 63.5027 100.228C63.2905 99.9668 63.1384 99.7581 63.0429 99.6237L62.9474 99.4822L62.9333 99.461L60.8819 96.0905L58.5866 99.316L58.583 99.3195C58.4592 99.4858 57.4371 100.773 55.5839 101.972C53.72 103.175 51.0745 104.306 47.4564 104.313C47.1982 104.313 46.9329 104.306 46.6677 104.296C42.374 104.094 39.633 102.832 37.9319 101.686C37.083 101.113 36.4994 100.564 36.1422 100.182C35.9654 99.9915 35.8452 99.843 35.778 99.7581L35.7178 99.6768L33.7797 96.6882L31.5303 99.4716C31.502 99.507 30.4021 100.809 28.4215 102.057C26.4267 103.313 23.6044 104.511 19.958 104.515C19.477 104.515 18.9783 104.494 18.4655 104.448C14.6175 104.105 12.0109 102.821 10.338 101.657C9.50331 101.077 8.90912 100.522 8.5413 100.137C8.35739 99.942 8.22654 99.7935 8.15227 99.7015L8.08153 99.6131L8.07798 99.606L6.85426 100.497L8.09566 99.6272L3.82678 102.619C3.95764 102.807 5.05404 104.328 7.36355 105.937C9.66245 107.546 13.1992 109.222 18.0163 109.643C18.6812 109.703 19.332 109.728 19.9651 109.728C24.9448 109.728 28.8494 108.009 31.4631 106.308C32.2483 105.795 32.9096 105.29 33.472 104.823C33.9141 105.205 34.4305 105.604 35.0282 106.011C37.4438 107.649 41.2034 109.276 46.4484 109.509C46.7985 109.523 47.1381 109.53 47.4741 109.53C52.5387 109.534 56.4044 107.779 58.9297 106.022C59.5521 105.59 60.0933 105.159 60.5636 104.752C61.0163 105.219 61.5433 105.714 62.1516 106.22C64.5319 108.193 68.2278 110.269 73.1616 110.517C73.4552 110.531 73.7452 110.538 74.0316 110.538C76.4331 110.538 78.64 110.036 80.5747 109.307C83.4783 108.211 85.7879 106.616 87.4042 105.293C87.5633 105.162 87.7083 105.038 87.8569 104.911C88.3449 105.382 88.9144 105.884 89.5934 106.393C92.0692 108.253 95.9419 110.1 101.13 110.093C101.265 110.093 101.389 110.093 101.505 110.089H101.519C106.344 110.004 110.181 108.218 112.777 106.492C113.594 105.951 114.277 105.417 114.857 104.929C115.405 105.413 116.056 105.937 116.83 106.471C119.373 108.222 123.21 110.008 128.158 110.089L128.463 110.093C130.945 110.093 133.198 109.583 135.14 108.833C138.061 107.705 140.304 106.057 141.842 104.688C141.998 104.55 142.139 104.42 142.281 104.285C142.928 104.862 143.706 105.502 144.629 106.16C146.001 107.132 147.671 108.119 149.612 108.883C151.551 109.647 153.765 110.188 156.187 110.23H156.191L156.47 110.234C158.886 110.234 161.079 109.693 162.971 108.904C165.814 107.719 168.004 106.001 169.514 104.582L169.811 104.296C170.317 104.77 170.907 105.279 171.6 105.795C174.172 107.716 178.133 109.7 183.42 109.937C183.728 109.951 184.032 109.958 184.333 109.958C186.883 109.958 189.136 109.452 191.035 108.681C193.861 107.539 195.898 105.852 197.249 104.437C197.748 104.901 198.331 105.396 199 105.894C201.635 107.854 205.698 109.845 211.089 109.937L211.378 109.94C213.748 109.94 215.891 109.421 217.738 108.66C220.51 107.518 222.629 105.855 224.086 104.487L224.206 104.37C224.698 104.865 225.274 105.392 225.95 105.926C228.482 107.935 232.433 109.976 237.664 109.969C238.067 109.969 238.474 109.958 238.884 109.933C243.91 109.643 247.634 107.631 250.025 105.7C250.538 105.29 250.98 104.883 251.379 104.497C251.814 104.95 252.313 105.424 252.89 105.905C255.348 107.96 259.238 110.068 264.515 110.227C264.734 110.234 264.946 110.238 265.159 110.238C270.276 110.238 274.305 108.321 277 106.443C277.937 105.788 278.715 105.145 279.345 104.568C279.995 105.084 280.784 105.668 281.711 106.269C284.399 108.002 288.194 109.877 292.724 110.22C293.074 110.245 293.421 110.259 293.757 110.259C296.017 110.259 298.079 109.711 299.854 108.925C302.525 107.744 304.587 106.05 306.022 104.657L306.206 104.473C306.747 104.993 307.384 105.555 308.141 106.124C310.801 108.137 314.886 110.209 320.286 110.368C320.513 110.375 320.735 110.379 320.955 110.379C323.54 110.379 325.793 109.912 327.682 109.191C330.405 108.154 332.357 106.616 333.655 105.29C334.119 105.714 334.645 106.16 335.254 106.609C337.783 108.483 341.684 110.375 346.808 110.368C351.947 110.372 355.93 108.448 358.554 106.556C359.399 105.947 360.1 105.346 360.683 104.798C361.288 105.304 362.006 105.859 362.848 106.432C365.458 108.197 369.178 110.1 373.684 110.365C373.943 110.379 374.201 110.386 374.452 110.386C376.737 110.386 378.859 109.82 380.73 109.024C383.538 107.825 385.833 106.114 387.467 104.699C387.655 104.536 387.831 104.381 387.998 104.225C388.592 104.84 389.296 105.523 390.127 106.223C391.404 107.288 392.953 108.377 394.763 109.222C396.574 110.064 398.665 110.662 400.956 110.662H401.169H401.186C403.63 110.62 405.869 110.039 407.828 109.23C410.767 108.006 413.095 106.269 414.718 104.837C414.898 104.678 415.065 104.526 415.227 104.374C415.811 104.943 416.504 105.562 417.339 106.195C420.02 108.232 424.09 110.351 429.378 110.517C429.519 110.521 429.657 110.524 429.795 110.524C431.995 110.524 434.029 109.99 435.818 109.237C438.506 108.101 440.681 106.481 442.227 105.141C442.457 104.939 442.669 104.748 442.874 104.561C443.415 104.993 444.048 105.466 444.791 105.962C447.231 107.585 450.74 109.396 455.076 110.054C455.801 110.163 456.516 110.213 457.216 110.213C459.317 110.213 461.272 109.767 463.013 109.131C465.623 108.172 467.762 106.793 469.287 105.65C470.808 104.504 471.709 103.592 471.777 103.521L468.052 99.8748L468.127 99.9279Z" fill="black"/>
</svg>
