<svg width="513" height="188" viewBox="0 0 513 188" fill="none" xmlns="http://www.w3.org/2000/svg">
<g filter="url(#filter0_d_104_57)">
<path d="M23.0815 52.9354H40.9386L52.8752 80.8476H61.3317L48.6453 50.9619C56.1644 48.8929 60.6738 42.0351 60.6738 34.4204C60.6738 28.9702 58.138 23.612 53.8125 20.3228C49.4906 17.0336 44.4153 16.3758 39.1526 16.3758H15V80.844H23.0815V52.9354ZM23.0815 23.3326H39.1526C42.5337 23.3326 45.2606 23.4281 48.0794 25.4016C51.1811 27.4671 52.5923 30.5688 52.5923 34.3284C52.5923 37.4302 51.5596 40.5319 49.3031 42.7849C46.1059 46.0741 42.5373 46.357 38.2118 46.357H23.0815V23.3326Z" fill="black" shape-rendering="crispEdges"/>
<path d="M39.1523 15.3758C44.4797 15.3758 49.8299 16.0354 54.418 19.5272L54.8418 19.8602C59.1681 23.3682 61.6738 28.8533 61.6738 34.4207C61.6737 42.0549 57.3481 49.0472 49.9971 51.5887L62.252 80.4568L62.8428 81.8475H52.2148L51.9561 81.241L40.2793 53.9354H24.0811V81.8436H14V15.3758H39.1523ZM24.0811 45.3572H38.2119C42.3735 45.3572 45.4962 45.0793 48.3145 42.3592L48.5967 42.077C50.6305 40.0462 51.5927 37.218 51.5928 34.3289C51.5928 30.8509 50.307 28.0866 47.5254 26.2342L47.5059 26.2205C44.9674 24.4433 42.5309 24.3328 39.1523 24.3328H24.0811V45.3572Z" stroke="white" stroke-opacity="0.48" stroke-width="2" shape-rendering="crispEdges"/>
</g>
<g filter="url(#filter1_d_104_57)">
<path d="M81.905 16.3793H73.8235V80.8476H81.905V16.3793Z" fill="black" shape-rendering="crispEdges"/>
<path d="M82.9045 15.3793V81.8471H72.8235V15.3793H82.9045Z" stroke="white" stroke-opacity="0.48" stroke-width="2" shape-rendering="crispEdges"/>
</g>
<g filter="url(#filter2_d_104_57)">
<path d="M120.247 80.8476L142.051 16.3793H135.003L117.145 69.5688L99.1963 16.3793H90.7399L112.541 80.8476H120.247Z" fill="black" shape-rendering="crispEdges"/>
<path d="M99.9147 15.3793L100.144 16.06L117.143 66.434L134.054 16.061L134.284 15.3793H143.445L142.999 16.6996L121.194 81.1684L120.964 81.8471H111.823L111.593 81.1674L89.7926 16.6996L89.3463 15.3793H99.9147Z" stroke="white" stroke-opacity="0.48" stroke-width="2" shape-rendering="crispEdges"/>
</g>
<g filter="url(#filter3_d_104_57)">
<path d="M192.418 73.8943H158.777V50.304H184.712V43.8211H158.777V23.3326H191.481V16.3793H150.692V80.8476H192.418V73.8943Z" fill="black" shape-rendering="crispEdges"/>
<path d="M192.482 15.3793V24.3325H159.777V42.8207H185.712V51.3041H159.777V72.894H193.418V81.8471H149.692V15.3793H192.482Z" stroke="white" stroke-opacity="0.48" stroke-width="2" shape-rendering="crispEdges"/>
</g>
<g filter="url(#filter4_d_104_57)">
<path d="M211.025 52.9354H228.883L240.819 80.8476H249.276L236.589 50.9619C244.108 48.8929 248.618 42.0351 248.618 34.4204C248.618 28.9702 246.082 23.612 241.756 20.3228C237.434 17.0336 232.359 16.3758 227.096 16.3758H202.944V80.844H211.025V52.9354ZM211.025 23.3326H227.096C230.478 23.3326 233.204 23.4281 236.023 25.4016C239.125 27.4671 240.536 30.5688 240.536 34.3284C240.536 37.4302 239.503 40.5319 237.247 42.7849C234.05 46.0741 230.481 46.357 226.156 46.357H211.025V23.3326Z" fill="black" shape-rendering="crispEdges"/>
<path d="M227.096 15.3758C232.424 15.3758 237.774 16.0354 242.362 19.5272L242.786 19.8602C247.112 23.3682 249.618 28.8533 249.618 34.4207C249.618 42.0549 245.292 49.0472 237.941 51.5887L250.196 80.4568L250.787 81.8475H240.159L239.9 81.241L228.223 53.9354H212.025V81.8436H201.944V15.3758H227.096ZM212.025 45.3572H226.156C230.317 45.3572 233.44 45.0793 236.258 42.3592L236.541 42.077C238.574 40.0462 239.536 37.218 239.536 34.3289C239.536 30.8509 238.251 28.0866 235.469 26.2342L235.45 26.2205C232.911 24.4433 230.475 24.3328 227.096 24.3328H212.025V45.3572Z" stroke="white" stroke-opacity="0.48" stroke-width="2" shape-rendering="crispEdges"/>
</g>
<g filter="url(#filter5_d_104_57)">
<path d="M24.0647 171.831H28.5988V154.695H43.2022V151.056H28.5988V139.561H46.2084V135.66H24.0647V171.831Z" fill="black" shape-rendering="crispEdges"/>
<path d="M47.2083 134.66V140.562H29.5989V150.056H44.2024V155.695H29.5989V172.831H23.0647V134.66H47.2083Z" stroke="white" stroke-opacity="0.48" stroke-width="2" shape-rendering="crispEdges"/>
</g>
<g filter="url(#filter6_d_104_57)">
<path d="M64.6103 135.66L52.9036 171.831H56.6985L59.917 161.284H73.3107L76.9501 171.831H81.5903L69.8305 135.66H64.6103ZM61.1831 157.857L66.7712 140.509L72.3063 157.857H61.1831Z" fill="black" shape-rendering="crispEdges"/>
<path d="M70.5569 134.66L70.7815 135.351L82.5413 171.522L82.967 172.831H76.2375L76.0051 172.157L72.5979 162.284H60.6575L57.6545 172.123L57.4387 172.831H51.5286L51.9524 171.523L63.6584 135.353L63.8831 134.66H70.5569ZM62.5559 156.857H70.9377L66.7659 143.784L62.5559 156.857Z" stroke="white" stroke-opacity="0.48" stroke-width="2" shape-rendering="crispEdges"/>
</g>
<g filter="url(#filter7_d_104_57)">
<path d="M111.801 164.605L100.887 135.66H94.1387V171.831H97.9337V140.248H98.1459L109.853 171.831H112.908L124.353 140.248H124.562V171.831H129.096V135.66H122.454L111.801 164.605Z" fill="black" shape-rendering="crispEdges"/>
<path d="M101.578 134.66L101.822 135.308L111.79 161.74L121.516 135.315L121.757 134.66H130.096V172.831H123.562V145.365L113.849 172.171L113.609 172.831H109.156L108.915 172.179L98.9337 145.25V172.831H93.1387V134.66H101.578Z" stroke="white" stroke-opacity="0.48" stroke-width="2" shape-rendering="crispEdges"/>
</g>
<g filter="url(#filter8_d_104_57)">
<path d="M150.292 135.66H145.758V171.831H150.292V135.66Z" fill="black" shape-rendering="crispEdges"/>
<path d="M151.292 134.66V172.831H144.758V134.66H151.292Z" stroke="white" stroke-opacity="0.48" stroke-width="2" shape-rendering="crispEdges"/>
</g>
<g filter="url(#filter9_d_104_57)">
<path d="M170.752 135.66H166.218V171.831H187.573V167.824H170.752V135.66Z" fill="black" shape-rendering="crispEdges"/>
<path d="M171.752 134.66V166.823H188.573V172.831H165.218V134.66H171.752Z" stroke="white" stroke-opacity="0.48" stroke-width="2" shape-rendering="crispEdges"/>
</g>
<g filter="url(#filter10_d_104_57)">
<path d="M207.715 152.322L198.12 135.66H192.846L204.921 156.591V171.831H209.455V156.591L221.53 135.66H217.416L207.715 152.322Z" fill="black" shape-rendering="crispEdges"/>
<path d="M198.698 134.66L198.986 135.161L207.719 150.326L216.552 135.157L216.841 134.66H223.26L222.396 136.16L210.455 156.859V172.831H203.921V156.859L191.98 136.16L191.115 134.66H198.698Z" stroke="white" stroke-opacity="0.48" stroke-width="2" shape-rendering="crispEdges"/>
</g>
<g filter="url(#filter11_d_104_57)">
<path d="M284.735 80.4125L294.886 37.7485H295.073L305.599 80.4125H320.446L336.612 15.9443H324.206L314.808 56.5428L314.246 59.3616H314.058L303.25 15.9443H289.34L278.91 59.3616H278.723L268.855 15.9443H253.442L270.075 80.4125H284.735Z" fill="black" shape-rendering="crispEdges"/>
<path d="M269.654 14.9443L269.83 15.7226L278.84 55.3691L288.368 15.7109L288.552 14.9443H304.032L304.22 15.7031L314.073 55.2831L323.231 15.7187L323.411 14.9443H337.894L337.582 16.1874L321.415 80.6562L321.226 81.412H304.815L304.627 80.6523L294.995 41.6083L285.708 80.6435L285.525 81.412H269.3L269.107 80.662L252.473 16.1943L252.151 14.9443H269.654Z" stroke="white" stroke-opacity="0.48" stroke-width="2" shape-rendering="crispEdges"/>
</g>
<g filter="url(#filter12_d_104_57)">
<path d="M389.611 67.9135H358.597V53.6285H383.033V41.508H358.597V28.4432H389.611V15.9443H343.562V80.4125H389.611V67.9135Z" fill="black" shape-rendering="crispEdges"/>
<path d="M390.611 14.9443V29.4433H359.597V40.5078H384.033V54.6288H359.597V66.914H390.611V81.412H342.562V14.9443H390.611Z" stroke="white" stroke-opacity="0.48" stroke-width="2" shape-rendering="crispEdges"/>
</g>
<g filter="url(#filter13_d_104_57)">
<path d="M419.865 69.4167C413.191 69.4167 408.306 67.0683 406.425 60.3025L392.515 63.4962C395.429 76.0906 406.425 81.3533 418.549 81.3533C425.032 81.3533 432.081 80.1296 437.251 76.0906C442.231 72.2391 445.241 66.223 445.241 59.9276C445.241 53.5366 442.047 48.182 436.781 44.7018C432.271 41.6955 425.223 40.3799 419.96 39.2516C416.296 38.5938 410.655 37.4655 410.655 32.7652C410.655 27.7854 415.543 26.7491 419.582 26.7491C425.315 26.7491 428.791 28.9101 430.669 34.3603L443.451 30.1303C439.504 18.947 430.294 15 419.016 15C413.095 15 407.55 16.3157 402.849 20.2627C398.244 24.1143 395.896 29.3805 395.896 35.393C395.896 49.4906 407.171 52.8717 418.637 55.2237C422.584 56.069 429.916 57.1017 429.916 62.4599C429.923 67.8216 424.19 69.4167 419.865 69.4167Z" fill="black" shape-rendering="crispEdges"/>
<path d="M419.016 14C424.762 14 430.071 15.0045 434.476 17.502C438.903 20.0123 442.346 23.9922 444.395 29.7979L444.733 30.7588L443.766 31.0801L430.983 35.3096L430.046 35.6201L429.724 34.6865C428.834 32.1048 427.605 30.4086 426.014 29.3408C424.414 28.2674 422.329 27.749 419.581 27.749C417.615 27.7491 415.574 28.0068 414.059 28.7803C413.315 29.1598 412.725 29.6497 412.318 30.2715C411.915 30.8879 411.654 31.6919 411.654 32.7656C411.655 34.6008 412.71 35.779 414.388 36.6338C415.89 37.399 417.748 37.8215 419.429 38.1377L420.137 38.2676L420.17 38.2734C422.78 38.833 425.902 39.4535 428.926 40.3105C431.943 41.1659 434.948 42.2797 437.331 43.8672H437.332C442.85 47.5139 446.241 53.1687 446.241 59.9277C446.241 66.5372 443.084 72.8407 437.866 76.8779C432.437 81.1187 425.121 82.3535 418.549 82.3535C406.166 82.3535 394.6 76.9442 391.54 63.7217L391.315 62.7461L392.291 62.5215L406.201 59.3281L407.132 59.1143L407.388 60.0342C408.272 63.215 409.831 65.2682 411.878 66.5488C413.951 67.8457 416.632 68.417 419.864 68.417C421.932 68.417 424.263 68.0309 426.038 67.0693C427.763 66.1346 428.919 64.696 428.916 62.4609V62.46C428.916 60.3718 427.537 59.035 425.351 58.0635C423.15 57.0858 420.482 56.6398 418.437 56.2021V56.2031C412.713 55.0291 406.841 53.567 402.403 50.5391C397.879 47.4519 394.896 42.7729 394.896 35.3926C394.896 29.0981 397.365 23.5462 402.207 19.4961C407.143 15.352 412.944 14 419.016 14Z" stroke="white" stroke-opacity="0.48" stroke-width="2" shape-rendering="crispEdges"/>
</g>
<g filter="url(#filter14_d_104_57)">
<path d="M449.842 15.9443V28.7262H466.193V80.4125H481.231V28.7262H497.394V15.9443H449.842Z" fill="black" shape-rendering="crispEdges"/>
<path d="M498.394 14.9443V29.7265H482.231V81.412H465.193V29.7265H448.842V14.9443H498.394Z" stroke="white" stroke-opacity="0.48" stroke-width="2" shape-rendering="crispEdges"/>
</g>
<g filter="url(#filter15_d_104_57)">
<path d="M232.522 171.778H240.932V157.694H254.648V150.918H240.932V142.72H258.167V135.731H232.522V171.778Z" fill="black" shape-rendering="crispEdges"/>
<path d="M259.167 134.731V143.719H241.932V149.918H255.648V158.694H241.932V172.778H231.522V134.731H259.167Z" stroke="white" stroke-opacity="0.48" stroke-width="2" shape-rendering="crispEdges"/>
</g>
<g filter="url(#filter16_d_104_57)">
<path d="M277.548 135.731H269.142V171.778H277.548V135.731Z" fill="black" shape-rendering="crispEdges"/>
<path d="M278.549 134.731V172.778H268.142V134.731H278.549Z" stroke="white" stroke-opacity="0.48" stroke-width="2" shape-rendering="crispEdges"/>
</g>
<g filter="url(#filter17_d_104_57)">
<path d="M290.21 142.875H299.353V171.778H307.76V142.875H316.799V135.731H290.21V142.875Z" fill="black" shape-rendering="crispEdges"/>
<path d="M317.8 134.731V143.876H308.76V172.778H298.353V143.876H289.21V134.731H317.8Z" stroke="white" stroke-opacity="0.48" stroke-width="2" shape-rendering="crispEdges"/>
</g>
<g filter="url(#filter18_d_104_57)">
<path d="M350.424 156.906H350.317L338.285 135.731H329.192V171.778H335.711V147.555H335.919L349.741 171.778H356.938V135.731H350.424V156.906Z" fill="black" shape-rendering="crispEdges"/>
<path d="M338.867 134.731L339.155 135.237L349.424 153.309V134.731H357.938V172.778H349.16L348.872 172.273L336.711 150.96V172.778H328.192V134.731H338.867Z" stroke="white" stroke-opacity="0.48" stroke-width="2" shape-rendering="crispEdges"/>
</g>
<g filter="url(#filter19_d_104_57)">
<path d="M371.906 171.778H397.657V164.789H380.313V156.803H393.979V150.023H380.313V142.72H397.657V135.731H371.906V171.778Z" fill="black" shape-rendering="crispEdges"/>
<path d="M398.657 134.731V143.719H381.313V149.023H394.979V157.803H381.313V163.789H398.657V172.778H370.906V134.731H398.657Z" stroke="white" stroke-opacity="0.48" stroke-width="2" shape-rendering="crispEdges"/>
</g>
<g filter="url(#filter20_d_104_57)">
<path d="M432.066 151.809C429.545 150.129 425.605 149.394 422.662 148.761C420.614 148.393 417.459 147.763 417.459 145.135C417.459 142.348 420.193 141.772 422.453 141.772C425.658 141.772 427.603 142.981 428.653 146.027L435.801 143.661C433.594 137.408 428.445 135.201 422.139 135.201C418.828 135.201 415.726 135.936 413.102 138.143C410.527 140.297 409.212 143.24 409.212 146.603C409.212 154.487 415.518 156.375 421.93 157.691C424.137 158.165 428.236 158.741 428.236 161.737C428.236 164.733 425.032 165.624 422.613 165.624C418.881 165.624 416.147 164.312 415.097 160.527L407.32 162.313C408.95 169.355 415.097 172.298 421.877 172.298C425.502 172.298 429.442 171.615 432.335 169.355C435.119 167.201 436.802 163.838 436.802 160.315C436.799 156.75 435.009 153.754 432.066 151.809Z" fill="black" shape-rendering="crispEdges"/>
<path d="M437.802 160.315C437.802 164.153 435.971 167.806 432.948 170.146L432.947 170.145C429.795 172.605 425.59 173.298 421.877 173.298C414.839 173.298 408.121 170.209 406.345 162.539L406.119 161.563L407.096 161.339L414.873 159.553L415.805 159.339L416.061 160.26C416.53 161.949 417.342 162.998 418.379 163.647C419.443 164.312 420.851 164.623 422.613 164.623C423.727 164.623 424.95 164.414 425.856 163.924C426.712 163.461 427.236 162.789 427.236 161.737C427.235 160.83 426.665 160.198 425.504 159.682C424.329 159.16 422.904 158.921 421.729 158.669V158.67C418.532 158.014 415.166 157.184 412.603 155.436C409.953 153.628 408.212 150.876 408.212 146.603C408.212 142.957 409.649 139.728 412.46 137.376C415.32 134.972 418.678 134.201 422.139 134.201C425.399 134.201 428.45 134.77 431 136.216C433.573 137.675 435.565 139.987 436.744 143.328L437.083 144.289L436.115 144.61L428.968 146.976L428.031 147.286L427.708 146.353C427.233 144.974 426.593 144.118 425.804 143.588C425.006 143.053 423.936 142.772 422.453 142.772C421.376 142.772 420.317 142.914 419.563 143.299C419.2 143.484 418.936 143.712 418.759 143.982C418.586 144.247 418.459 144.61 418.459 145.135C418.459 145.934 418.892 146.47 419.746 146.905C420.416 147.246 421.235 147.46 422.041 147.625L422.839 147.777L422.872 147.783C424.322 148.095 426.087 148.446 427.795 148.93C429.497 149.413 431.229 150.05 432.617 150.975C435.811 153.086 437.798 156.381 437.802 160.314V160.315Z" stroke="white" stroke-opacity="0.48" stroke-width="2" shape-rendering="crispEdges"/>
</g>
<g filter="url(#filter21_d_104_57)">
<path d="M471.629 151.809C469.107 150.129 465.167 149.394 462.224 148.761C460.177 148.393 457.022 147.763 457.022 145.135C457.022 142.348 459.756 141.772 462.016 141.772C465.22 141.772 467.165 142.981 468.216 146.027L475.364 143.661C473.157 137.408 468.007 135.201 461.701 135.201C458.391 135.201 455.289 135.936 452.665 138.143C450.09 140.297 448.774 143.24 448.774 146.603C448.774 154.487 455.08 156.375 461.492 157.691C463.699 158.165 467.798 158.741 467.798 161.737C467.798 164.733 464.594 165.624 462.175 165.624C458.444 165.624 455.71 164.312 454.659 160.527L446.882 162.313C448.512 169.355 454.659 172.298 461.439 172.298C465.064 172.298 469.004 171.615 471.897 169.355C474.681 167.201 476.364 163.838 476.364 160.315C476.357 156.75 474.571 153.754 471.629 151.809Z" fill="black" shape-rendering="crispEdges"/>
<path d="M477.364 160.315C477.364 164.153 475.533 167.806 472.51 170.146L472.509 170.145C469.358 172.605 465.152 173.298 461.44 173.298C454.401 173.298 447.683 170.209 445.907 162.539L445.682 161.563L446.658 161.339L454.436 159.553L455.367 159.339L455.623 160.26C456.092 161.949 456.904 162.998 457.941 163.647C459.005 164.312 460.413 164.623 462.175 164.623C463.289 164.623 464.513 164.414 465.418 163.924C466.274 163.461 466.798 162.789 466.798 161.737C466.798 160.83 466.227 160.198 465.066 159.682C463.891 159.16 462.466 158.921 461.291 158.669V158.67C458.095 158.014 454.729 157.184 452.165 155.436C449.515 153.628 447.774 150.876 447.774 146.603C447.775 142.957 449.211 139.728 452.023 137.376C454.882 134.972 458.241 134.201 461.701 134.201C464.961 134.201 468.012 134.77 470.563 136.216C473.136 137.675 475.128 139.987 476.307 143.328L476.646 144.289L475.678 144.61L468.53 146.976L467.593 147.286L467.271 146.353C466.795 144.974 466.155 144.118 465.366 143.588C464.568 143.053 463.499 142.772 462.016 142.772C460.938 142.772 459.88 142.914 459.125 143.299C458.762 143.484 458.498 143.712 458.321 143.982C458.148 144.247 458.022 144.61 458.022 145.135C458.022 145.934 458.454 146.47 459.309 146.905C459.979 147.246 460.797 147.46 461.604 147.625L462.401 147.777L462.435 147.783C463.884 148.095 465.65 148.446 467.357 148.93C469.06 149.413 470.791 150.05 472.18 150.975C475.374 153.087 477.356 156.381 477.364 160.313V160.315Z" stroke="white" stroke-opacity="0.48" stroke-width="2" shape-rendering="crispEdges"/>
</g>
<g filter="url(#filter22_d_104_57)">
<mask id="path-45-outside-1_104_57" maskUnits="userSpaceOnUse" x="15.8445" y="87.8044" width="474" height="22" fill="black">
<rect fill="white" x="15.8445" y="87.8044" width="474" height="22"/>
<path d="M51.1635 96.7453C50.9866 96.5543 50.8664 96.4058 50.7992 96.3209L50.7391 96.2396L48.8009 93.2475L46.5515 96.0309C46.5232 96.0663 45.4233 97.3678 43.4427 98.6163C41.448 99.8718 38.6256 101.071 34.9792 101.074C34.4982 101.074 33.9995 101.053 33.4867 101.007C29.6387 100.664 27.0321 99.3802 25.3592 98.2166C24.5245 97.6366 23.9303 97.0813 23.5625 96.6958C23.3786 96.5013 23.2478 96.3527 23.1735 96.2608L23.1027 96.1724L23.0992 96.1653L21.8649 97.0601L23.1133 96.1865L18.8445 99.1786C18.9753 99.3661 20.0717 100.887 22.3813 102.496C24.6802 104.105 28.2169 105.782 33.034 106.203C33.6989 106.263 34.3497 106.287 34.9863 106.287C39.966 106.287 43.8706 104.569 46.4843 102.867C47.2695 102.355 47.9309 101.849 48.4932 101.382C48.9353 101.764 49.4517 102.164 50.0494 102.57C52.465 104.208 56.2246 105.835 61.4696 106.068C61.8197 106.082 62.1593 106.089 62.4953 106.089C67.5599 106.093 71.4256 104.339 73.9509 102.581C74.5733 102.149 75.1145 101.718 75.5849 101.311C76.0376 101.778 76.5645 102.273 77.1729 102.779C79.5531 104.753 83.249 106.829 88.1828 107.076C88.4764 107.09 88.7664 107.097 89.0529 107.097C91.4543 107.097 93.6613 106.595 95.5959 105.867C98.4996 104.77 100.809 103.175 102.425 101.852C102.585 101.722 102.73 101.598 102.878 101.47C103.366 101.941 103.936 102.443 104.615 102.952C107.09 104.813 110.963 106.659 116.152 106.652C116.286 106.652 116.41 106.652 116.526 106.648H116.541C121.365 106.563 125.202 104.777 127.798 103.051C128.615 102.51 129.298 101.976 129.878 101.488C130.426 101.973 131.077 102.496 131.851 103.03C134.394 104.781 138.232 106.567 143.18 106.648L143.484 106.652C145.967 106.652 148.219 106.143 150.161 105.393C153.083 104.264 155.325 102.616 156.863 101.248C157.019 101.11 157.16 100.979 157.302 100.844C157.949 101.421 158.727 102.061 159.65 102.719C161.023 103.692 162.692 104.678 164.634 105.442C166.572 106.206 168.786 106.747 171.208 106.79H171.212L171.491 106.793C173.907 106.793 176.1 106.252 177.992 105.463C180.836 104.279 183.025 102.56 184.535 101.142L184.832 100.855C185.338 101.329 185.928 101.838 186.622 102.355C189.193 104.275 193.154 106.259 198.442 106.496C198.749 106.51 199.053 106.517 199.354 106.517C201.904 106.517 204.157 106.012 206.056 105.241C208.882 104.098 210.919 102.411 212.27 100.997C212.769 101.46 213.353 101.955 214.021 102.454C216.656 104.417 220.72 106.404 226.11 106.496L226.4 106.5C228.769 106.5 230.913 105.98 232.759 105.219C235.532 104.077 237.65 102.415 239.107 101.046L239.228 100.929C239.719 101.424 240.296 101.951 240.971 102.485C243.504 104.494 247.454 106.535 252.685 106.528C253.088 106.528 253.495 106.517 253.905 106.493C258.931 106.203 262.655 104.19 265.046 102.259C265.559 101.849 266.001 101.442 266.401 101.057C266.836 101.509 267.334 101.983 267.911 102.464C270.369 104.519 274.259 106.627 279.536 106.786C279.755 106.793 279.968 106.797 280.18 106.797C285.298 106.797 289.326 104.88 292.021 103.002C292.958 102.348 293.736 101.704 294.366 101.127C295.017 101.644 295.805 102.227 296.732 102.829C299.42 104.562 303.215 106.436 307.745 106.779C308.096 106.804 308.442 106.818 308.778 106.818C311.038 106.818 313.1 106.27 314.876 105.485C317.546 104.303 319.608 102.609 321.044 101.216L321.228 101.032C321.769 101.552 322.405 102.114 323.162 102.684C325.822 104.696 329.907 106.769 335.307 106.928C335.534 106.935 335.757 106.938 335.976 106.938C338.561 106.938 340.814 106.471 342.703 105.75C345.426 104.714 347.378 103.175 348.676 101.849C349.14 102.273 349.667 102.719 350.275 103.168C352.804 105.043 356.705 106.935 361.83 106.928C366.969 106.931 370.951 105.007 373.575 103.115C374.421 102.507 375.121 101.905 375.704 101.357C376.309 101.859 377.027 102.418 377.869 102.991C380.479 104.756 384.2 106.659 388.706 106.924C388.964 106.938 389.218 106.945 389.473 106.945C391.758 106.945 393.88 106.379 395.751 105.584C398.559 104.385 400.854 102.673 402.488 101.258C402.676 101.096 402.853 100.94 403.019 100.784C403.613 101.4 404.317 102.082 405.148 102.783C406.425 103.847 407.974 104.936 409.785 105.782C411.596 106.624 413.686 107.221 415.978 107.221H416.19H416.208C418.651 107.179 420.89 106.599 422.85 105.789C425.789 104.565 428.116 102.829 429.739 101.396C429.92 101.237 430.086 101.085 430.248 100.933C430.832 101.502 431.525 102.121 432.36 102.754C435.041 104.791 439.112 106.91 444.399 107.076C444.541 107.08 444.678 107.083 444.816 107.083C447.016 107.083 449.05 106.549 450.84 105.796C453.527 104.661 455.703 103.041 457.248 101.7C457.478 101.499 457.69 101.308 457.895 101.12C458.437 101.552 459.07 102.026 459.812 102.521C462.253 104.144 465.761 105.955 470.097 106.613C470.822 106.723 471.537 106.772 472.237 106.772C474.338 106.772 476.294 106.326 478.034 105.69C480.644 104.731 482.784 103.352 484.308 102.21C485.829 101.064 486.731 100.151 486.798 100.08L483.074 96.4341L483.144 96.5048L483.074 96.4341C482.996 96.5154 481.624 97.8665 479.579 99.1397C478.561 99.7763 477.376 100.395 476.12 100.841C474.865 101.287 473.549 101.562 472.237 101.562C471.784 101.562 471.332 101.531 470.875 101.463C467.554 100.965 464.704 99.5252 462.705 98.1883C461.704 97.5234 460.919 96.8868 460.399 96.4305C460.138 96.2007 459.943 96.0203 459.819 95.9L459.689 95.7692L459.667 95.7444L457.665 93.6294L455.784 95.854C455.695 95.9602 454.291 97.5588 452.208 99.0548C451.168 99.8046 449.962 100.526 448.7 101.042C447.434 101.562 446.121 101.874 444.82 101.874L444.565 101.87C440.608 101.746 437.598 100.18 435.511 98.6056C434.475 97.8205 433.686 97.0389 433.17 96.4694C432.912 96.1865 432.724 95.9531 432.604 95.8045L432.48 95.6419L432.459 95.6135L430.478 92.7558L428.293 95.4721C428.211 95.5746 426.797 97.2652 424.568 98.8709C423.454 99.6737 422.146 100.459 420.713 101.035C419.281 101.612 417.742 101.987 416.119 102.015H415.978C414.605 102.015 413.265 101.654 411.981 101.06C410.064 100.176 408.331 98.7471 407.122 97.5376C406.517 96.9328 406.039 96.3881 405.721 96.0061C405.562 95.8151 405.445 95.6631 405.367 95.564L405.286 95.4579L405.272 95.4403L403.33 92.7346L401.173 95.267C401.162 95.2811 399.67 97 397.427 98.6375C396.31 99.4545 395.005 100.25 393.639 100.823C392.271 101.396 390.856 101.743 389.466 101.743C389.307 101.743 389.151 101.739 388.992 101.729C385.841 101.559 382.916 100.137 380.794 98.6905C379.736 97.9726 378.88 97.2581 378.307 96.7347C378.021 96.473 377.802 96.2608 377.664 96.1193L377.512 95.9637L377.483 95.9318L375.315 93.5445L373.441 96.1582C373.406 96.2077 372.316 97.6543 370.339 99.0265C368.344 100.409 365.529 101.722 361.826 101.725C357.992 101.718 355.244 100.36 353.366 98.9841C352.432 98.2979 351.739 97.6083 351.29 97.1061C351.067 96.8549 350.905 96.6534 350.806 96.526L350.707 96.3916L350.696 96.3739L348.284 92.7523L346.243 96.5897C346.24 96.5932 346.201 96.6675 346.109 96.8054C345.776 97.3112 344.836 98.5703 343.212 99.6632C341.578 100.756 339.297 101.725 335.976 101.736C335.81 101.736 335.636 101.732 335.463 101.729C331.329 101.598 328.333 100.059 326.299 98.5314C325.288 97.771 324.531 97.0141 324.046 96.4659C323.802 96.1936 323.625 95.9708 323.516 95.8293L323.403 95.6772L323.385 95.6524L321.302 92.526L319.109 95.5817C319.109 95.5817 319.042 95.6772 318.9 95.8505C318.416 96.4588 317.093 97.9796 315.275 99.2741C314.366 99.9249 313.341 100.516 312.244 100.936C311.148 101.357 309.991 101.608 308.771 101.608C308.555 101.608 308.34 101.601 308.12 101.584C304.849 101.35 301.779 99.9001 299.554 98.4536C298.444 97.7356 297.545 97.0282 296.941 96.5083C296.636 96.2502 296.407 96.038 296.258 95.9L296.099 95.7444L296.067 95.7126L293.97 93.5657L292.145 95.9354C292.106 95.9884 290.917 97.4597 288.841 98.8568C286.755 100.261 283.84 101.584 280.173 101.584C280.014 101.584 279.851 101.58 279.692 101.577C275.724 101.446 273.039 99.9425 271.235 98.4571C270.341 97.7144 269.69 96.9787 269.272 96.4447C269.064 96.1794 268.919 95.9637 268.827 95.8293L268.735 95.6878L268.724 95.6666L266.549 91.8044L264.24 95.5923C264.218 95.6277 263.345 96.9823 261.605 98.3333C259.84 99.7021 257.258 101.074 253.594 101.294C253.279 101.311 252.975 101.322 252.678 101.322C248.816 101.315 246.078 99.8718 244.193 98.397C243.26 97.6613 242.563 96.9186 242.114 96.381C241.891 96.1122 241.728 95.893 241.629 95.7515L241.527 95.6029L241.512 95.5817L239.461 92.2501L237.183 95.4403L237.137 95.5004C236.897 95.8222 235.666 97.3501 233.763 98.7188C232.812 99.405 231.698 100.056 230.463 100.526C229.226 100.997 227.875 101.294 226.393 101.294L226.195 101.29C222.05 101.212 219.107 99.7339 217.116 98.2697C216.129 97.5376 215.397 96.809 214.926 96.282C214.693 96.0203 214.523 95.8081 214.417 95.6701L214.311 95.5287L214.297 95.5075L211.963 91.9813L209.872 95.656C209.855 95.6949 208.956 97.1733 207.22 98.5632C206.346 99.2635 205.264 99.9496 203.97 100.455C202.672 100.961 201.154 101.301 199.347 101.301C199.128 101.301 198.901 101.297 198.675 101.287C194.572 101.092 191.669 99.6066 189.727 98.1706C188.761 97.4527 188.051 96.7453 187.594 96.2396C187.368 95.9849 187.202 95.7833 187.103 95.6524L187.004 95.5181L186.993 95.5004L184.921 92.3951L182.724 95.4226L182.675 95.4898C182.413 95.8364 181.104 97.4385 179.11 98.8815C178.112 99.603 176.949 100.286 175.668 100.781C174.385 101.276 172.995 101.584 171.484 101.584H171.286H171.29C169.592 101.555 167.997 101.173 166.536 100.597C164.347 99.7374 162.473 98.4218 161.175 97.3218C160.527 96.7736 160.022 96.282 159.689 95.9389C159.523 95.7656 159.399 95.6312 159.321 95.5464L159.24 95.4544L159.226 95.4367L157.129 92.9185L155.155 95.5322L155.109 95.5923C154.854 95.9142 153.553 97.4421 151.512 98.8249C149.461 100.215 146.734 101.442 143.477 101.442H143.257C139.537 101.378 136.725 100.059 134.79 98.7365C133.828 98.0787 133.1 97.4208 132.626 96.9469C132.389 96.71 132.216 96.5189 132.109 96.3952L132 96.2643L131.986 96.2466L130.012 93.6542L127.925 96.1582C127.89 96.2042 126.719 97.5482 124.711 98.8426C122.695 100.144 119.886 101.386 116.438 101.442L116.137 101.446C112.18 101.439 109.506 100.105 107.72 98.7825C106.836 98.1211 106.189 97.4597 105.778 96.9858C105.573 96.7489 105.428 96.5579 105.343 96.4376L105.258 96.3138L105.251 96.2997L103.387 93.297L101.074 95.9849C101.074 95.9849 100.993 96.0769 100.834 96.2466C100.275 96.8337 98.7578 98.3015 96.6604 99.5712C94.5561 100.848 91.9177 101.898 89.0493 101.895C88.8477 101.895 88.6461 101.891 88.441 101.881C84.8512 101.693 82.2623 100.229 80.4868 98.7719C79.6062 98.0433 78.9483 97.3253 78.5239 96.8054C78.3117 96.5437 78.1596 96.335 78.0641 96.2006L77.9686 96.0592L77.9545 96.038L75.9032 92.6674L73.6078 95.8929H73.6043C73.4805 96.0592 72.4583 97.3466 70.6051 98.5455C68.7412 99.748 66.0957 100.88 62.4776 100.883C62.2194 100.883 61.9541 100.876 61.6889 100.866C57.3952 100.664 54.6543 99.4014 52.9531 98.259C52.1007 97.6755 51.5172 97.1238 51.1635 96.7453Z"/>
</mask>
<path d="M51.1635 96.7453C50.9866 96.5543 50.8664 96.4058 50.7992 96.3209L50.7391 96.2396L48.8009 93.2475L46.5515 96.0309C46.5232 96.0663 45.4233 97.3678 43.4427 98.6163C41.448 99.8718 38.6256 101.071 34.9792 101.074C34.4982 101.074 33.9995 101.053 33.4867 101.007C29.6387 100.664 27.0321 99.3802 25.3592 98.2166C24.5245 97.6366 23.9303 97.0813 23.5625 96.6958C23.3786 96.5013 23.2478 96.3527 23.1735 96.2608L23.1027 96.1724L23.0992 96.1653L21.8649 97.0601L23.1133 96.1865L18.8445 99.1786C18.9753 99.3661 20.0717 100.887 22.3813 102.496C24.6802 104.105 28.2169 105.782 33.034 106.203C33.6989 106.263 34.3497 106.287 34.9863 106.287C39.966 106.287 43.8706 104.569 46.4843 102.867C47.2695 102.355 47.9309 101.849 48.4932 101.382C48.9353 101.764 49.4517 102.164 50.0494 102.57C52.465 104.208 56.2246 105.835 61.4696 106.068C61.8197 106.082 62.1593 106.089 62.4953 106.089C67.5599 106.093 71.4256 104.339 73.9509 102.581C74.5733 102.149 75.1145 101.718 75.5849 101.311C76.0376 101.778 76.5645 102.273 77.1729 102.779C79.5531 104.753 83.249 106.829 88.1828 107.076C88.4764 107.09 88.7664 107.097 89.0529 107.097C91.4543 107.097 93.6613 106.595 95.5959 105.867C98.4996 104.77 100.809 103.175 102.425 101.852C102.585 101.722 102.73 101.598 102.878 101.47C103.366 101.941 103.936 102.443 104.615 102.952C107.09 104.813 110.963 106.659 116.152 106.652C116.286 106.652 116.41 106.652 116.526 106.648H116.541C121.365 106.563 125.202 104.777 127.798 103.051C128.615 102.51 129.298 101.976 129.878 101.488C130.426 101.973 131.077 102.496 131.851 103.03C134.394 104.781 138.232 106.567 143.18 106.648L143.484 106.652C145.967 106.652 148.219 106.143 150.161 105.393C153.083 104.264 155.325 102.616 156.863 101.248C157.019 101.11 157.16 100.979 157.302 100.844C157.949 101.421 158.727 102.061 159.65 102.719C161.023 103.692 162.692 104.678 164.634 105.442C166.572 106.206 168.786 106.747 171.208 106.79H171.212L171.491 106.793C173.907 106.793 176.1 106.252 177.992 105.463C180.836 104.279 183.025 102.56 184.535 101.142L184.832 100.855C185.338 101.329 185.928 101.838 186.622 102.355C189.193 104.275 193.154 106.259 198.442 106.496C198.749 106.51 199.053 106.517 199.354 106.517C201.904 106.517 204.157 106.012 206.056 105.241C208.882 104.098 210.919 102.411 212.27 100.997C212.769 101.46 213.353 101.955 214.021 102.454C216.656 104.417 220.72 106.404 226.11 106.496L226.4 106.5C228.769 106.5 230.913 105.98 232.759 105.219C235.532 104.077 237.65 102.415 239.107 101.046L239.228 100.929C239.719 101.424 240.296 101.951 240.971 102.485C243.504 104.494 247.454 106.535 252.685 106.528C253.088 106.528 253.495 106.517 253.905 106.493C258.931 106.203 262.655 104.19 265.046 102.259C265.559 101.849 266.001 101.442 266.401 101.057C266.836 101.509 267.334 101.983 267.911 102.464C270.369 104.519 274.259 106.627 279.536 106.786C279.755 106.793 279.968 106.797 280.18 106.797C285.298 106.797 289.326 104.88 292.021 103.002C292.958 102.348 293.736 101.704 294.366 101.127C295.017 101.644 295.805 102.227 296.732 102.829C299.42 104.562 303.215 106.436 307.745 106.779C308.096 106.804 308.442 106.818 308.778 106.818C311.038 106.818 313.1 106.27 314.876 105.485C317.546 104.303 319.608 102.609 321.044 101.216L321.228 101.032C321.769 101.552 322.405 102.114 323.162 102.684C325.822 104.696 329.907 106.769 335.307 106.928C335.534 106.935 335.757 106.938 335.976 106.938C338.561 106.938 340.814 106.471 342.703 105.75C345.426 104.714 347.378 103.175 348.676 101.849C349.14 102.273 349.667 102.719 350.275 103.168C352.804 105.043 356.705 106.935 361.83 106.928C366.969 106.931 370.951 105.007 373.575 103.115C374.421 102.507 375.121 101.905 375.704 101.357C376.309 101.859 377.027 102.418 377.869 102.991C380.479 104.756 384.2 106.659 388.706 106.924C388.964 106.938 389.218 106.945 389.473 106.945C391.758 106.945 393.88 106.379 395.751 105.584C398.559 104.385 400.854 102.673 402.488 101.258C402.676 101.096 402.853 100.94 403.019 100.784C403.613 101.4 404.317 102.082 405.148 102.783C406.425 103.847 407.974 104.936 409.785 105.782C411.596 106.624 413.686 107.221 415.978 107.221H416.19H416.208C418.651 107.179 420.89 106.599 422.85 105.789C425.789 104.565 428.116 102.829 429.739 101.396C429.92 101.237 430.086 101.085 430.248 100.933C430.832 101.502 431.525 102.121 432.36 102.754C435.041 104.791 439.112 106.91 444.399 107.076C444.541 107.08 444.678 107.083 444.816 107.083C447.016 107.083 449.05 106.549 450.84 105.796C453.527 104.661 455.703 103.041 457.248 101.7C457.478 101.499 457.69 101.308 457.895 101.12C458.437 101.552 459.07 102.026 459.812 102.521C462.253 104.144 465.761 105.955 470.097 106.613C470.822 106.723 471.537 106.772 472.237 106.772C474.338 106.772 476.294 106.326 478.034 105.69C480.644 104.731 482.784 103.352 484.308 102.21C485.829 101.064 486.731 100.151 486.798 100.08L483.074 96.4341L483.144 96.5048L483.074 96.4341C482.996 96.5154 481.624 97.8665 479.579 99.1397C478.561 99.7763 477.376 100.395 476.12 100.841C474.865 101.287 473.549 101.562 472.237 101.562C471.784 101.562 471.332 101.531 470.875 101.463C467.554 100.965 464.704 99.5252 462.705 98.1883C461.704 97.5234 460.919 96.8868 460.399 96.4305C460.138 96.2007 459.943 96.0203 459.819 95.9L459.689 95.7692L459.667 95.7444L457.665 93.6294L455.784 95.854C455.695 95.9602 454.291 97.5588 452.208 99.0548C451.168 99.8046 449.962 100.526 448.7 101.042C447.434 101.562 446.121 101.874 444.82 101.874L444.565 101.87C440.608 101.746 437.598 100.18 435.511 98.6056C434.475 97.8205 433.686 97.0389 433.17 96.4694C432.912 96.1865 432.724 95.9531 432.604 95.8045L432.48 95.6419L432.459 95.6135L430.478 92.7558L428.293 95.4721C428.211 95.5746 426.797 97.2652 424.568 98.8709C423.454 99.6737 422.146 100.459 420.713 101.035C419.281 101.612 417.742 101.987 416.119 102.015H415.978C414.605 102.015 413.265 101.654 411.981 101.06C410.064 100.176 408.331 98.7471 407.122 97.5376C406.517 96.9328 406.039 96.3881 405.721 96.0061C405.562 95.8151 405.445 95.6631 405.367 95.564L405.286 95.4579L405.272 95.4403L403.33 92.7346L401.173 95.267C401.162 95.2811 399.67 97 397.427 98.6375C396.31 99.4545 395.005 100.25 393.639 100.823C392.271 101.396 390.856 101.743 389.466 101.743C389.307 101.743 389.151 101.739 388.992 101.729C385.841 101.559 382.916 100.137 380.794 98.6905C379.736 97.9726 378.88 97.2581 378.307 96.7347C378.021 96.473 377.802 96.2608 377.664 96.1193L377.512 95.9637L377.483 95.9318L375.315 93.5445L373.441 96.1582C373.406 96.2077 372.316 97.6543 370.339 99.0265C368.344 100.409 365.529 101.722 361.826 101.725C357.992 101.718 355.244 100.36 353.366 98.9841C352.432 98.2979 351.739 97.6083 351.29 97.1061C351.067 96.8549 350.905 96.6534 350.806 96.526L350.707 96.3916L350.696 96.3739L348.284 92.7523L346.243 96.5897C346.24 96.5932 346.201 96.6675 346.109 96.8054C345.776 97.3112 344.836 98.5703 343.212 99.6632C341.578 100.756 339.297 101.725 335.976 101.736C335.81 101.736 335.636 101.732 335.463 101.729C331.329 101.598 328.333 100.059 326.299 98.5314C325.288 97.771 324.531 97.0141 324.046 96.4659C323.802 96.1936 323.625 95.9708 323.516 95.8293L323.403 95.6772L323.385 95.6524L321.302 92.526L319.109 95.5817C319.109 95.5817 319.042 95.6772 318.9 95.8505C318.416 96.4588 317.093 97.9796 315.275 99.2741C314.366 99.9249 313.341 100.516 312.244 100.936C311.148 101.357 309.991 101.608 308.771 101.608C308.555 101.608 308.34 101.601 308.12 101.584C304.849 101.35 301.779 99.9001 299.554 98.4536C298.444 97.7356 297.545 97.0282 296.941 96.5083C296.636 96.2502 296.407 96.038 296.258 95.9L296.099 95.7444L296.067 95.7126L293.97 93.5657L292.145 95.9354C292.106 95.9884 290.917 97.4597 288.841 98.8568C286.755 100.261 283.84 101.584 280.173 101.584C280.014 101.584 279.851 101.58 279.692 101.577C275.724 101.446 273.039 99.9425 271.235 98.4571C270.341 97.7144 269.69 96.9787 269.272 96.4447C269.064 96.1794 268.919 95.9637 268.827 95.8293L268.735 95.6878L268.724 95.6666L266.549 91.8044L264.24 95.5923C264.218 95.6277 263.345 96.9823 261.605 98.3333C259.84 99.7021 257.258 101.074 253.594 101.294C253.279 101.311 252.975 101.322 252.678 101.322C248.816 101.315 246.078 99.8718 244.193 98.397C243.26 97.6613 242.563 96.9186 242.114 96.381C241.891 96.1122 241.728 95.893 241.629 95.7515L241.527 95.6029L241.512 95.5817L239.461 92.2501L237.183 95.4403L237.137 95.5004C236.897 95.8222 235.666 97.3501 233.763 98.7188C232.812 99.405 231.698 100.056 230.463 100.526C229.226 100.997 227.875 101.294 226.393 101.294L226.195 101.29C222.05 101.212 219.107 99.7339 217.116 98.2697C216.129 97.5376 215.397 96.809 214.926 96.282C214.693 96.0203 214.523 95.8081 214.417 95.6701L214.311 95.5287L214.297 95.5075L211.963 91.9813L209.872 95.656C209.855 95.6949 208.956 97.1733 207.22 98.5632C206.346 99.2635 205.264 99.9496 203.97 100.455C202.672 100.961 201.154 101.301 199.347 101.301C199.128 101.301 198.901 101.297 198.675 101.287C194.572 101.092 191.669 99.6066 189.727 98.1706C188.761 97.4527 188.051 96.7453 187.594 96.2396C187.368 95.9849 187.202 95.7833 187.103 95.6524L187.004 95.5181L186.993 95.5004L184.921 92.3951L182.724 95.4226L182.675 95.4898C182.413 95.8364 181.104 97.4385 179.11 98.8815C178.112 99.603 176.949 100.286 175.668 100.781C174.385 101.276 172.995 101.584 171.484 101.584H171.286H171.29C169.592 101.555 167.997 101.173 166.536 100.597C164.347 99.7374 162.473 98.4218 161.175 97.3218C160.527 96.7736 160.022 96.282 159.689 95.9389C159.523 95.7656 159.399 95.6312 159.321 95.5464L159.24 95.4544L159.226 95.4367L157.129 92.9185L155.155 95.5322L155.109 95.5923C154.854 95.9142 153.553 97.4421 151.512 98.8249C149.461 100.215 146.734 101.442 143.477 101.442H143.257C139.537 101.378 136.725 100.059 134.79 98.7365C133.828 98.0787 133.1 97.4208 132.626 96.9469C132.389 96.71 132.216 96.5189 132.109 96.3952L132 96.2643L131.986 96.2466L130.012 93.6542L127.925 96.1582C127.89 96.2042 126.719 97.5482 124.711 98.8426C122.695 100.144 119.886 101.386 116.438 101.442L116.137 101.446C112.18 101.439 109.506 100.105 107.72 98.7825C106.836 98.1211 106.189 97.4597 105.778 96.9858C105.573 96.7489 105.428 96.5579 105.343 96.4376L105.258 96.3138L105.251 96.2997L103.387 93.297L101.074 95.9849C101.074 95.9849 100.993 96.0769 100.834 96.2466C100.275 96.8337 98.7578 98.3015 96.6604 99.5712C94.5561 100.848 91.9177 101.898 89.0493 101.895C88.8477 101.895 88.6461 101.891 88.441 101.881C84.8512 101.693 82.2623 100.229 80.4868 98.7719C79.6062 98.0433 78.9483 97.3253 78.5239 96.8054C78.3117 96.5437 78.1596 96.335 78.0641 96.2006L77.9686 96.0592L77.9545 96.038L75.9032 92.6674L73.6078 95.8929H73.6043C73.4805 96.0592 72.4583 97.3466 70.6051 98.5455C68.7412 99.748 66.0957 100.88 62.4776 100.883C62.2194 100.883 61.9541 100.876 61.6889 100.866C57.3952 100.664 54.6543 99.4014 52.9531 98.259C52.1007 97.6755 51.5172 97.1238 51.1635 96.7453Z" fill="black" shape-rendering="crispEdges"/>
<path d="M51.1635 96.7453C50.9866 96.5543 50.8664 96.4058 50.7992 96.3209L50.7391 96.2396L48.8009 93.2475L46.5515 96.0309C46.5232 96.0663 45.4233 97.3678 43.4427 98.6163C41.448 99.8718 38.6256 101.071 34.9792 101.074C34.4982 101.074 33.9995 101.053 33.4867 101.007C29.6387 100.664 27.0321 99.3802 25.3592 98.2166C24.5245 97.6366 23.9303 97.0813 23.5625 96.6958C23.3786 96.5013 23.2478 96.3527 23.1735 96.2608L23.1027 96.1724L23.0992 96.1653L21.8649 97.0601L23.1133 96.1865L18.8445 99.1786C18.9753 99.3661 20.0717 100.887 22.3813 102.496C24.6802 104.105 28.2169 105.782 33.034 106.203C33.6989 106.263 34.3497 106.287 34.9863 106.287C39.966 106.287 43.8706 104.569 46.4843 102.867C47.2695 102.355 47.9309 101.849 48.4932 101.382C48.9353 101.764 49.4517 102.164 50.0494 102.57C52.465 104.208 56.2246 105.835 61.4696 106.068C61.8197 106.082 62.1593 106.089 62.4953 106.089C67.5599 106.093 71.4256 104.339 73.9509 102.581C74.5733 102.149 75.1145 101.718 75.5849 101.311C76.0376 101.778 76.5645 102.273 77.1729 102.779C79.5531 104.753 83.249 106.829 88.1828 107.076C88.4764 107.09 88.7664 107.097 89.0529 107.097C91.4543 107.097 93.6613 106.595 95.5959 105.867C98.4996 104.77 100.809 103.175 102.425 101.852C102.585 101.722 102.73 101.598 102.878 101.47C103.366 101.941 103.936 102.443 104.615 102.952C107.09 104.813 110.963 106.659 116.152 106.652C116.286 106.652 116.41 106.652 116.526 106.648H116.541C121.365 106.563 125.202 104.777 127.798 103.051C128.615 102.51 129.298 101.976 129.878 101.488C130.426 101.973 131.077 102.496 131.851 103.03C134.394 104.781 138.232 106.567 143.18 106.648L143.484 106.652C145.967 106.652 148.219 106.143 150.161 105.393C153.083 104.264 155.325 102.616 156.863 101.248C157.019 101.11 157.16 100.979 157.302 100.844C157.949 101.421 158.727 102.061 159.65 102.719C161.023 103.692 162.692 104.678 164.634 105.442C166.572 106.206 168.786 106.747 171.208 106.79H171.212L171.491 106.793C173.907 106.793 176.1 106.252 177.992 105.463C180.836 104.279 183.025 102.56 184.535 101.142L184.832 100.855C185.338 101.329 185.928 101.838 186.622 102.355C189.193 104.275 193.154 106.259 198.442 106.496C198.749 106.51 199.053 106.517 199.354 106.517C201.904 106.517 204.157 106.012 206.056 105.241C208.882 104.098 210.919 102.411 212.27 100.997C212.769 101.46 213.353 101.955 214.021 102.454C216.656 104.417 220.72 106.404 226.11 106.496L226.4 106.5C228.769 106.5 230.913 105.98 232.759 105.219C235.532 104.077 237.65 102.415 239.107 101.046L239.228 100.929C239.719 101.424 240.296 101.951 240.971 102.485C243.504 104.494 247.454 106.535 252.685 106.528C253.088 106.528 253.495 106.517 253.905 106.493C258.931 106.203 262.655 104.19 265.046 102.259C265.559 101.849 266.001 101.442 266.401 101.057C266.836 101.509 267.334 101.983 267.911 102.464C270.369 104.519 274.259 106.627 279.536 106.786C279.755 106.793 279.968 106.797 280.18 106.797C285.298 106.797 289.326 104.88 292.021 103.002C292.958 102.348 293.736 101.704 294.366 101.127C295.017 101.644 295.805 102.227 296.732 102.829C299.42 104.562 303.215 106.436 307.745 106.779C308.096 106.804 308.442 106.818 308.778 106.818C311.038 106.818 313.1 106.27 314.876 105.485C317.546 104.303 319.608 102.609 321.044 101.216L321.228 101.032C321.769 101.552 322.405 102.114 323.162 102.684C325.822 104.696 329.907 106.769 335.307 106.928C335.534 106.935 335.757 106.938 335.976 106.938C338.561 106.938 340.814 106.471 342.703 105.75C345.426 104.714 347.378 103.175 348.676 101.849C349.14 102.273 349.667 102.719 350.275 103.168C352.804 105.043 356.705 106.935 361.83 106.928C366.969 106.931 370.951 105.007 373.575 103.115C374.421 102.507 375.121 101.905 375.704 101.357C376.309 101.859 377.027 102.418 377.869 102.991C380.479 104.756 384.2 106.659 388.706 106.924C388.964 106.938 389.218 106.945 389.473 106.945C391.758 106.945 393.88 106.379 395.751 105.584C398.559 104.385 400.854 102.673 402.488 101.258C402.676 101.096 402.853 100.94 403.019 100.784C403.613 101.4 404.317 102.082 405.148 102.783C406.425 103.847 407.974 104.936 409.785 105.782C411.596 106.624 413.686 107.221 415.978 107.221H416.19H416.208C418.651 107.179 420.89 106.599 422.85 105.789C425.789 104.565 428.116 102.829 429.739 101.396C429.92 101.237 430.086 101.085 430.248 100.933C430.832 101.502 431.525 102.121 432.36 102.754C435.041 104.791 439.112 106.91 444.399 107.076C444.541 107.08 444.678 107.083 444.816 107.083C447.016 107.083 449.05 106.549 450.84 105.796C453.527 104.661 455.703 103.041 457.248 101.7C457.478 101.499 457.69 101.308 457.895 101.12C458.437 101.552 459.07 102.026 459.812 102.521C462.253 104.144 465.761 105.955 470.097 106.613C470.822 106.723 471.537 106.772 472.237 106.772C474.338 106.772 476.294 106.326 478.034 105.69C480.644 104.731 482.784 103.352 484.308 102.21C485.829 101.064 486.731 100.151 486.798 100.08L483.074 96.4341L483.144 96.5048L483.074 96.4341C482.996 96.5154 481.624 97.8665 479.579 99.1397C478.561 99.7763 477.376 100.395 476.12 100.841C474.865 101.287 473.549 101.562 472.237 101.562C471.784 101.562 471.332 101.531 470.875 101.463C467.554 100.965 464.704 99.5252 462.705 98.1883C461.704 97.5234 460.919 96.8868 460.399 96.4305C460.138 96.2007 459.943 96.0203 459.819 95.9L459.689 95.7692L459.667 95.7444L457.665 93.6294L455.784 95.854C455.695 95.9602 454.291 97.5588 452.208 99.0548C451.168 99.8046 449.962 100.526 448.7 101.042C447.434 101.562 446.121 101.874 444.82 101.874L444.565 101.87C440.608 101.746 437.598 100.18 435.511 98.6056C434.475 97.8205 433.686 97.0389 433.17 96.4694C432.912 96.1865 432.724 95.9531 432.604 95.8045L432.48 95.6419L432.459 95.6135L430.478 92.7558L428.293 95.4721C428.211 95.5746 426.797 97.2652 424.568 98.8709C423.454 99.6737 422.146 100.459 420.713 101.035C419.281 101.612 417.742 101.987 416.119 102.015H415.978C414.605 102.015 413.265 101.654 411.981 101.06C410.064 100.176 408.331 98.7471 407.122 97.5376C406.517 96.9328 406.039 96.3881 405.721 96.0061C405.562 95.8151 405.445 95.6631 405.367 95.564L405.286 95.4579L405.272 95.4403L403.33 92.7346L401.173 95.267C401.162 95.2811 399.67 97 397.427 98.6375C396.31 99.4545 395.005 100.25 393.639 100.823C392.271 101.396 390.856 101.743 389.466 101.743C389.307 101.743 389.151 101.739 388.992 101.729C385.841 101.559 382.916 100.137 380.794 98.6905C379.736 97.9726 378.88 97.2581 378.307 96.7347C378.021 96.473 377.802 96.2608 377.664 96.1193L377.512 95.9637L377.483 95.9318L375.315 93.5445L373.441 96.1582C373.406 96.2077 372.316 97.6543 370.339 99.0265C368.344 100.409 365.529 101.722 361.826 101.725C357.992 101.718 355.244 100.36 353.366 98.9841C352.432 98.2979 351.739 97.6083 351.29 97.1061C351.067 96.8549 350.905 96.6534 350.806 96.526L350.707 96.3916L350.696 96.3739L348.284 92.7523L346.243 96.5897C346.24 96.5932 346.201 96.6675 346.109 96.8054C345.776 97.3112 344.836 98.5703 343.212 99.6632C341.578 100.756 339.297 101.725 335.976 101.736C335.81 101.736 335.636 101.732 335.463 101.729C331.329 101.598 328.333 100.059 326.299 98.5314C325.288 97.771 324.531 97.0141 324.046 96.4659C323.802 96.1936 323.625 95.9708 323.516 95.8293L323.403 95.6772L323.385 95.6524L321.302 92.526L319.109 95.5817C319.109 95.5817 319.042 95.6772 318.9 95.8505C318.416 96.4588 317.093 97.9796 315.275 99.2741C314.366 99.9249 313.341 100.516 312.244 100.936C311.148 101.357 309.991 101.608 308.771 101.608C308.555 101.608 308.34 101.601 308.12 101.584C304.849 101.35 301.779 99.9001 299.554 98.4536C298.444 97.7356 297.545 97.0282 296.941 96.5083C296.636 96.2502 296.407 96.038 296.258 95.9L296.099 95.7444L296.067 95.7126L293.97 93.5657L292.145 95.9354C292.106 95.9884 290.917 97.4597 288.841 98.8568C286.755 100.261 283.84 101.584 280.173 101.584C280.014 101.584 279.851 101.58 279.692 101.577C275.724 101.446 273.039 99.9425 271.235 98.4571C270.341 97.7144 269.69 96.9787 269.272 96.4447C269.064 96.1794 268.919 95.9637 268.827 95.8293L268.735 95.6878L268.724 95.6666L266.549 91.8044L264.24 95.5923C264.218 95.6277 263.345 96.9823 261.605 98.3333C259.84 99.7021 257.258 101.074 253.594 101.294C253.279 101.311 252.975 101.322 252.678 101.322C248.816 101.315 246.078 99.8718 244.193 98.397C243.26 97.6613 242.563 96.9186 242.114 96.381C241.891 96.1122 241.728 95.893 241.629 95.7515L241.527 95.6029L241.512 95.5817L239.461 92.2501L237.183 95.4403L237.137 95.5004C236.897 95.8222 235.666 97.3501 233.763 98.7188C232.812 99.405 231.698 100.056 230.463 100.526C229.226 100.997 227.875 101.294 226.393 101.294L226.195 101.29C222.05 101.212 219.107 99.7339 217.116 98.2697C216.129 97.5376 215.397 96.809 214.926 96.282C214.693 96.0203 214.523 95.8081 214.417 95.6701L214.311 95.5287L214.297 95.5075L211.963 91.9813L209.872 95.656C209.855 95.6949 208.956 97.1733 207.22 98.5632C206.346 99.2635 205.264 99.9496 203.97 100.455C202.672 100.961 201.154 101.301 199.347 101.301C199.128 101.301 198.901 101.297 198.675 101.287C194.572 101.092 191.669 99.6066 189.727 98.1706C188.761 97.4527 188.051 96.7453 187.594 96.2396C187.368 95.9849 187.202 95.7833 187.103 95.6524L187.004 95.5181L186.993 95.5004L184.921 92.3951L182.724 95.4226L182.675 95.4898C182.413 95.8364 181.104 97.4385 179.11 98.8815C178.112 99.603 176.949 100.286 175.668 100.781C174.385 101.276 172.995 101.584 171.484 101.584H171.286H171.29C169.592 101.555 167.997 101.173 166.536 100.597C164.347 99.7374 162.473 98.4218 161.175 97.3218C160.527 96.7736 160.022 96.282 159.689 95.9389C159.523 95.7656 159.399 95.6312 159.321 95.5464L159.24 95.4544L159.226 95.4367L157.129 92.9185L155.155 95.5322L155.109 95.5923C154.854 95.9142 153.553 97.4421 151.512 98.8249C149.461 100.215 146.734 101.442 143.477 101.442H143.257C139.537 101.378 136.725 100.059 134.79 98.7365C133.828 98.0787 133.1 97.4208 132.626 96.9469C132.389 96.71 132.216 96.5189 132.109 96.3952L132 96.2643L131.986 96.2466L130.012 93.6542L127.925 96.1582C127.89 96.2042 126.719 97.5482 124.711 98.8426C122.695 100.144 119.886 101.386 116.438 101.442L116.137 101.446C112.18 101.439 109.506 100.105 107.72 98.7825C106.836 98.1211 106.189 97.4597 105.778 96.9858C105.573 96.7489 105.428 96.5579 105.343 96.4376L105.258 96.3138L105.251 96.2997L103.387 93.297L101.074 95.9849C101.074 95.9849 100.993 96.0769 100.834 96.2466C100.275 96.8337 98.7578 98.3015 96.6604 99.5712C94.5561 100.848 91.9177 101.898 89.0493 101.895C88.8477 101.895 88.6461 101.891 88.441 101.881C84.8512 101.693 82.2623 100.229 80.4868 98.7719C79.6062 98.0433 78.9483 97.3253 78.5239 96.8054C78.3117 96.5437 78.1596 96.335 78.0641 96.2006L77.9686 96.0592L77.9545 96.038L75.9032 92.6674L73.6078 95.8929H73.6043C73.4805 96.0592 72.4583 97.3466 70.6051 98.5455C68.7412 99.748 66.0957 100.88 62.4776 100.883C62.2194 100.883 61.9541 100.876 61.6889 100.866C57.3952 100.664 54.6543 99.4014 52.9531 98.259C52.1007 97.6755 51.5172 97.1238 51.1635 96.7453Z" stroke="white" stroke-opacity="0.48" stroke-width="4" shape-rendering="crispEdges" mask="url(#path-45-outside-1_104_57)"/>
</g>
<g filter="url(#filter23_d_104_57)">
<mask id="path-46-outside-2_104_57" maskUnits="userSpaceOnUse" x="15.8268" y="106.227" width="474" height="22" fill="black">
<rect fill="white" x="15.8268" y="106.227" width="474" height="22"/>
<path d="M483.127 114.928L483.056 114.857C482.975 114.942 481.602 116.289 479.562 117.563C478.543 118.199 477.358 118.818 476.103 119.264C474.847 119.71 473.531 119.985 472.219 119.985C471.767 119.985 471.314 119.954 470.858 119.886C467.537 119.388 464.686 117.948 462.688 116.611C461.687 115.946 460.902 115.31 460.382 114.854C460.12 114.624 459.926 114.443 459.802 114.323L459.671 114.192L459.65 114.167L457.648 112.052L455.766 114.277C455.678 114.383 454.274 115.982 452.191 117.478C451.151 118.228 449.945 118.949 448.682 119.466C447.416 119.985 446.104 120.297 444.802 120.297L444.548 120.293C440.59 120.169 437.58 118.603 435.493 117.029C434.457 116.244 433.669 115.462 433.152 114.892C432.894 114.61 432.707 114.376 432.586 114.228L432.462 114.065L432.441 114.037L430.457 111.179L428.271 113.895C428.19 113.998 426.775 115.688 424.547 117.294C423.433 118.097 422.125 118.882 420.692 119.458C419.26 120.035 417.721 120.41 416.098 120.438H415.956C414.584 120.438 413.244 120.077 411.96 119.483C410.043 118.599 408.31 117.17 407.1 115.961C406.496 115.356 406.018 114.811 405.7 114.429C405.541 114.238 405.424 114.086 405.346 113.987L405.265 113.881L405.251 113.86L403.312 111.154L401.151 113.69C401.127 113.722 399.641 115.43 397.41 117.057C396.292 117.874 394.987 118.67 393.622 119.243C392.253 119.816 390.838 120.162 389.448 120.162C389.289 120.162 389.13 120.159 388.974 120.148C385.823 119.978 382.898 118.557 380.776 117.11C379.719 116.392 378.863 115.678 378.29 115.154C378.003 114.892 377.784 114.68 377.646 114.539L377.494 114.383L377.466 114.351L375.298 111.964L373.423 114.578C373.388 114.631 372.299 116.074 370.321 117.446C368.327 118.829 365.511 120.141 361.808 120.145C357.975 120.138 355.227 118.779 353.348 117.404C352.415 116.717 351.722 116.028 351.272 115.526C351.05 115.274 350.887 115.073 350.788 114.946L350.689 114.811L350.675 114.793L348.263 111.175L346.222 115.013C346.218 115.016 346.18 115.091 346.088 115.228C345.755 115.734 344.814 116.993 343.191 118.086C341.557 119.179 339.276 120.148 335.955 120.159C335.788 120.159 335.615 120.155 335.445 120.152C331.311 120.021 328.315 118.482 326.282 116.954C325.27 116.19 324.513 115.437 324.029 114.889C323.785 114.617 323.608 114.394 323.498 114.252L323.385 114.1L323.367 114.075L321.284 110.949L319.091 114.005C319.091 114.005 319.024 114.1 318.883 114.274C318.398 114.882 317.075 116.403 315.258 117.697C314.349 118.348 313.323 118.939 312.227 119.359C311.13 119.78 309.974 120.031 308.753 120.031C308.538 120.031 308.322 120.024 308.103 120.007C304.831 119.773 301.761 118.323 299.537 116.877C298.426 116.159 297.528 115.451 296.923 114.931C296.619 114.673 296.389 114.461 296.24 114.323L296.081 114.167L296.049 114.136L293.952 111.989L292.124 114.358C292.085 114.411 290.896 115.883 288.82 117.28C286.733 118.684 283.819 120.007 280.152 120.007C279.992 120.007 279.833 120.003 279.671 120C275.702 119.869 273.018 118.366 271.214 116.88C270.319 116.137 269.669 115.402 269.251 114.868C269.043 114.602 268.898 114.387 268.806 114.252L268.714 114.111L268.703 114.09L266.528 110.227L264.218 114.015C264.197 114.051 263.324 115.405 261.584 116.756C259.819 118.125 257.237 119.497 253.573 119.717C253.258 119.734 252.954 119.745 252.657 119.745C248.795 119.738 246.057 118.295 244.172 116.82C243.238 116.084 242.542 115.342 242.092 114.804C241.87 114.535 241.707 114.316 241.608 114.175L241.505 114.026L241.491 114.005L239.44 110.673L237.162 113.863L237.116 113.923C236.876 114.245 235.645 115.773 233.742 117.142C232.791 117.828 231.677 118.479 230.442 118.949C229.204 119.42 227.853 119.717 226.371 119.717H226.173C222.028 119.639 219.086 118.16 217.094 116.696C216.108 115.964 215.376 115.236 214.905 114.709C214.672 114.447 214.502 114.235 214.396 114.097L214.29 113.955L214.276 113.934L211.941 110.408L209.851 114.083C209.833 114.121 208.935 115.6 207.199 116.99C206.325 117.69 205.243 118.376 203.948 118.882C202.65 119.388 201.133 119.727 199.326 119.727C199.106 119.727 198.88 119.724 198.654 119.713C194.551 119.519 191.647 118.033 189.706 116.597C188.74 115.879 188.029 115.172 187.573 114.666C187.347 114.411 187.18 114.21 187.081 114.079L186.982 113.945L186.972 113.927L184.899 110.822L182.703 113.849L182.653 113.916C182.392 114.263 181.083 115.865 179.088 117.308C178.091 118.03 176.927 118.712 175.647 119.207C174.363 119.702 172.973 120.01 171.463 120.01H171.265H171.269C169.571 119.982 167.976 119.6 166.515 119.023C164.326 118.164 162.451 116.845 161.153 115.748C160.506 115.2 160 114.709 159.668 114.366C159.502 114.192 159.378 114.058 159.3 113.973L159.219 113.881L159.205 113.863L157.107 111.345L155.134 113.959L155.088 114.019C154.833 114.341 153.532 115.869 151.491 117.251C149.44 118.641 146.713 119.869 143.455 119.869L143.236 119.865C139.515 119.802 136.704 118.482 134.769 117.16C133.807 116.502 133.079 115.844 132.605 115.37C132.368 115.133 132.194 114.942 132.088 114.818L131.979 114.687L131.964 114.67L129.991 112.077L127.901 114.585C127.858 114.638 126.691 115.975 124.689 117.266C122.673 118.567 119.865 119.809 116.417 119.865L116.116 119.869C112.159 119.862 109.485 118.528 107.699 117.206C106.815 116.544 106.167 115.883 105.757 115.409C105.552 115.172 105.407 114.981 105.322 114.861L105.237 114.737L105.23 114.723L103.366 111.72L101.053 114.408C101.053 114.408 100.972 114.5 100.813 114.67C100.254 115.257 98.7365 116.725 96.6392 117.994C94.5349 119.271 91.8964 120.321 89.0281 120.318C88.8265 120.318 88.6249 120.314 88.4198 120.304C84.83 120.116 82.2411 118.652 80.4656 117.195C79.5849 116.47 78.9271 115.748 78.5027 115.228C78.2905 114.967 78.1384 114.758 78.0429 114.624L77.9474 114.482L77.9333 114.461L75.8819 111.09L73.5866 114.316L73.583 114.32C73.4592 114.486 72.4371 115.773 70.5839 116.972C68.72 118.175 66.0745 119.306 62.4564 119.313C62.1982 119.313 61.9329 119.306 61.6677 119.296C57.374 119.094 54.633 117.832 52.9319 116.686C52.083 116.113 51.4994 115.564 51.1422 115.182C50.9654 114.992 50.8452 114.843 50.778 114.758L50.7178 114.677L48.7797 111.688L46.5303 114.472C46.502 114.507 45.4021 115.809 43.4215 117.057C41.4267 118.313 38.6044 119.511 34.958 119.515C34.477 119.515 33.9783 119.494 33.4655 119.448C29.6175 119.105 27.0109 117.821 25.338 116.657C24.5033 116.077 23.9091 115.522 23.5413 115.137C23.3574 114.942 23.2265 114.793 23.1523 114.701L23.0815 114.613L23.078 114.606L21.8543 115.497L23.0957 114.627L18.8268 117.619C18.9576 117.807 20.054 119.328 22.3636 120.937C24.6625 122.546 28.1992 124.222 33.0163 124.643C33.6812 124.703 34.332 124.728 34.9651 124.728C39.9448 124.728 43.8494 123.009 46.4631 121.308C47.2483 120.795 47.9096 120.29 48.472 119.823C48.9141 120.205 49.4305 120.604 50.0282 121.011C52.4438 122.649 56.2034 124.276 61.4484 124.509C61.7985 124.523 62.1381 124.53 62.4741 124.53C67.5387 124.534 71.4044 122.779 73.9297 121.022C74.5521 120.59 75.0933 120.159 75.5636 119.752C76.0163 120.219 76.5433 120.714 77.1516 121.22C79.5319 123.193 83.2278 125.269 88.1616 125.517C88.4552 125.531 88.7452 125.538 89.0316 125.538C91.4331 125.538 93.64 125.036 95.5747 124.307C98.4783 123.211 100.788 121.616 102.404 120.293C102.563 120.162 102.708 120.038 102.857 119.911C103.345 120.382 103.914 120.884 104.593 121.393C107.069 123.253 110.942 125.1 116.13 125.093C116.265 125.093 116.389 125.093 116.505 125.089H116.519C121.344 125.004 125.181 123.218 127.777 121.492C128.594 120.951 129.277 120.417 129.857 119.929C130.405 120.413 131.056 120.937 131.83 121.471C134.373 123.222 138.21 125.008 143.158 125.089L143.463 125.093C145.945 125.093 148.198 124.583 150.14 123.833C153.061 122.705 155.304 121.057 156.842 119.688C156.998 119.55 157.139 119.42 157.281 119.285C157.928 119.862 158.706 120.502 159.629 121.16C161.001 122.132 162.671 123.119 164.612 123.883C166.551 124.647 168.765 125.188 171.187 125.23H171.191L171.47 125.234C173.886 125.234 176.079 124.693 177.971 123.904C180.814 122.719 183.004 121.001 184.514 119.582L184.811 119.296C185.317 119.77 185.907 120.279 186.6 120.795C189.172 122.716 193.133 124.7 198.42 124.937C198.728 124.951 199.032 124.958 199.333 124.958C201.883 124.958 204.136 124.452 206.035 123.681C208.861 122.539 210.898 120.852 212.249 119.437C212.748 119.901 213.331 120.396 214 120.894C216.635 122.854 220.698 124.845 226.089 124.937L226.378 124.94C228.748 124.94 230.891 124.421 232.738 123.66C235.51 122.518 237.629 120.855 239.086 119.487L239.206 119.37C239.698 119.865 240.274 120.392 240.95 120.926C243.482 122.935 247.433 124.976 252.664 124.969C253.067 124.969 253.474 124.958 253.884 124.933C258.91 124.643 262.634 122.631 265.025 120.7C265.538 120.29 265.98 119.883 266.379 119.497C266.814 119.95 267.313 120.424 267.89 120.905C270.348 122.96 274.238 125.068 279.515 125.227C279.734 125.234 279.946 125.238 280.159 125.238C285.276 125.238 289.305 123.321 292 121.443C292.937 120.788 293.715 120.145 294.345 119.568C294.995 120.084 295.784 120.668 296.711 121.269C299.399 123.002 303.194 124.877 307.724 125.22C308.074 125.245 308.421 125.259 308.757 125.259C311.017 125.259 313.079 124.711 314.854 123.925C317.525 122.744 319.587 121.05 321.022 119.657L321.206 119.473C321.747 119.993 322.384 120.555 323.141 121.124C325.801 123.137 329.886 125.209 335.286 125.368C335.513 125.375 335.735 125.379 335.955 125.379C338.54 125.379 340.793 124.912 342.682 124.191C345.405 123.154 347.357 121.616 348.655 120.29C349.119 120.714 349.645 121.16 350.254 121.609C352.783 123.483 356.684 125.375 361.808 125.368C366.947 125.372 370.93 123.448 373.554 121.556C374.399 120.947 375.1 120.346 375.683 119.798C376.288 120.304 377.006 120.859 377.848 121.432C380.458 123.197 384.178 125.1 388.684 125.365C388.943 125.379 389.201 125.386 389.452 125.386C391.737 125.386 393.859 124.82 395.73 124.024C398.538 122.825 400.833 121.114 402.467 119.699C402.655 119.536 402.831 119.381 402.998 119.225C403.592 119.84 404.296 120.523 405.127 121.223C406.404 122.288 407.953 123.377 409.763 124.222C411.574 125.064 413.665 125.662 415.956 125.662H416.169H416.186C418.63 125.62 420.869 125.039 422.828 124.23C425.767 123.006 428.095 121.269 429.718 119.837C429.898 119.678 430.065 119.526 430.227 119.374C430.811 119.943 431.504 120.562 432.339 121.195C435.02 123.232 439.09 125.351 444.378 125.517C444.519 125.521 444.657 125.524 444.795 125.524C446.995 125.524 449.029 124.99 450.818 124.237C453.506 123.101 455.681 121.481 457.227 120.141C457.457 119.939 457.669 119.748 457.874 119.561C458.415 119.993 459.048 120.466 459.791 120.962C462.231 122.585 465.74 124.396 470.076 125.054C470.801 125.163 471.516 125.213 472.216 125.213C474.317 125.213 476.272 124.767 478.013 124.131C480.623 123.172 482.762 121.793 484.287 120.65C485.808 119.504 486.709 118.592 486.777 118.521L483.052 114.875L483.127 114.928Z"/>
</mask>
<path d="M483.127 114.928L483.056 114.857C482.975 114.942 481.602 116.289 479.562 117.563C478.543 118.199 477.358 118.818 476.103 119.264C474.847 119.71 473.531 119.985 472.219 119.985C471.767 119.985 471.314 119.954 470.858 119.886C467.537 119.388 464.686 117.948 462.688 116.611C461.687 115.946 460.902 115.31 460.382 114.854C460.12 114.624 459.926 114.443 459.802 114.323L459.671 114.192L459.65 114.167L457.648 112.052L455.766 114.277C455.678 114.383 454.274 115.982 452.191 117.478C451.151 118.228 449.945 118.949 448.682 119.466C447.416 119.985 446.104 120.297 444.802 120.297L444.548 120.293C440.59 120.169 437.58 118.603 435.493 117.029C434.457 116.244 433.669 115.462 433.152 114.892C432.894 114.61 432.707 114.376 432.586 114.228L432.462 114.065L432.441 114.037L430.457 111.179L428.271 113.895C428.19 113.998 426.775 115.688 424.547 117.294C423.433 118.097 422.125 118.882 420.692 119.458C419.26 120.035 417.721 120.41 416.098 120.438H415.956C414.584 120.438 413.244 120.077 411.96 119.483C410.043 118.599 408.31 117.17 407.1 115.961C406.496 115.356 406.018 114.811 405.7 114.429C405.541 114.238 405.424 114.086 405.346 113.987L405.265 113.881L405.251 113.86L403.312 111.154L401.151 113.69C401.127 113.722 399.641 115.43 397.41 117.057C396.292 117.874 394.987 118.67 393.622 119.243C392.253 119.816 390.838 120.162 389.448 120.162C389.289 120.162 389.13 120.159 388.974 120.148C385.823 119.978 382.898 118.557 380.776 117.11C379.719 116.392 378.863 115.678 378.29 115.154C378.003 114.892 377.784 114.68 377.646 114.539L377.494 114.383L377.466 114.351L375.298 111.964L373.423 114.578C373.388 114.631 372.299 116.074 370.321 117.446C368.327 118.829 365.511 120.141 361.808 120.145C357.975 120.138 355.227 118.779 353.348 117.404C352.415 116.717 351.722 116.028 351.272 115.526C351.05 115.274 350.887 115.073 350.788 114.946L350.689 114.811L350.675 114.793L348.263 111.175L346.222 115.013C346.218 115.016 346.18 115.091 346.088 115.228C345.755 115.734 344.814 116.993 343.191 118.086C341.557 119.179 339.276 120.148 335.955 120.159C335.788 120.159 335.615 120.155 335.445 120.152C331.311 120.021 328.315 118.482 326.282 116.954C325.27 116.19 324.513 115.437 324.029 114.889C323.785 114.617 323.608 114.394 323.498 114.252L323.385 114.1L323.367 114.075L321.284 110.949L319.091 114.005C319.091 114.005 319.024 114.1 318.883 114.274C318.398 114.882 317.075 116.403 315.258 117.697C314.349 118.348 313.323 118.939 312.227 119.359C311.13 119.78 309.974 120.031 308.753 120.031C308.538 120.031 308.322 120.024 308.103 120.007C304.831 119.773 301.761 118.323 299.537 116.877C298.426 116.159 297.528 115.451 296.923 114.931C296.619 114.673 296.389 114.461 296.24 114.323L296.081 114.167L296.049 114.136L293.952 111.989L292.124 114.358C292.085 114.411 290.896 115.883 288.82 117.28C286.733 118.684 283.819 120.007 280.152 120.007C279.992 120.007 279.833 120.003 279.671 120C275.702 119.869 273.018 118.366 271.214 116.88C270.319 116.137 269.669 115.402 269.251 114.868C269.043 114.602 268.898 114.387 268.806 114.252L268.714 114.111L268.703 114.09L266.528 110.227L264.218 114.015C264.197 114.051 263.324 115.405 261.584 116.756C259.819 118.125 257.237 119.497 253.573 119.717C253.258 119.734 252.954 119.745 252.657 119.745C248.795 119.738 246.057 118.295 244.172 116.82C243.238 116.084 242.542 115.342 242.092 114.804C241.87 114.535 241.707 114.316 241.608 114.175L241.505 114.026L241.491 114.005L239.44 110.673L237.162 113.863L237.116 113.923C236.876 114.245 235.645 115.773 233.742 117.142C232.791 117.828 231.677 118.479 230.442 118.949C229.204 119.42 227.853 119.717 226.371 119.717H226.173C222.028 119.639 219.086 118.16 217.094 116.696C216.108 115.964 215.376 115.236 214.905 114.709C214.672 114.447 214.502 114.235 214.396 114.097L214.29 113.955L214.276 113.934L211.941 110.408L209.851 114.083C209.833 114.121 208.935 115.6 207.199 116.99C206.325 117.69 205.243 118.376 203.948 118.882C202.65 119.388 201.133 119.727 199.326 119.727C199.106 119.727 198.88 119.724 198.654 119.713C194.551 119.519 191.647 118.033 189.706 116.597C188.74 115.879 188.029 115.172 187.573 114.666C187.347 114.411 187.18 114.21 187.081 114.079L186.982 113.945L186.972 113.927L184.899 110.822L182.703 113.849L182.653 113.916C182.392 114.263 181.083 115.865 179.088 117.308C178.091 118.03 176.927 118.712 175.647 119.207C174.363 119.702 172.973 120.01 171.463 120.01H171.265H171.269C169.571 119.982 167.976 119.6 166.515 119.023C164.326 118.164 162.451 116.845 161.153 115.748C160.506 115.2 160 114.709 159.668 114.366C159.502 114.192 159.378 114.058 159.3 113.973L159.219 113.881L159.205 113.863L157.107 111.345L155.134 113.959L155.088 114.019C154.833 114.341 153.532 115.869 151.491 117.251C149.44 118.641 146.713 119.869 143.455 119.869L143.236 119.865C139.515 119.802 136.704 118.482 134.769 117.16C133.807 116.502 133.079 115.844 132.605 115.37C132.368 115.133 132.194 114.942 132.088 114.818L131.979 114.687L131.964 114.67L129.991 112.077L127.901 114.585C127.858 114.638 126.691 115.975 124.689 117.266C122.673 118.567 119.865 119.809 116.417 119.865L116.116 119.869C112.159 119.862 109.485 118.528 107.699 117.206C106.815 116.544 106.167 115.883 105.757 115.409C105.552 115.172 105.407 114.981 105.322 114.861L105.237 114.737L105.23 114.723L103.366 111.72L101.053 114.408C101.053 114.408 100.972 114.5 100.813 114.67C100.254 115.257 98.7365 116.725 96.6392 117.994C94.5349 119.271 91.8964 120.321 89.0281 120.318C88.8265 120.318 88.6249 120.314 88.4198 120.304C84.83 120.116 82.2411 118.652 80.4656 117.195C79.5849 116.47 78.9271 115.748 78.5027 115.228C78.2905 114.967 78.1384 114.758 78.0429 114.624L77.9474 114.482L77.9333 114.461L75.8819 111.09L73.5866 114.316L73.583 114.32C73.4592 114.486 72.4371 115.773 70.5839 116.972C68.72 118.175 66.0745 119.306 62.4564 119.313C62.1982 119.313 61.9329 119.306 61.6677 119.296C57.374 119.094 54.633 117.832 52.9319 116.686C52.083 116.113 51.4994 115.564 51.1422 115.182C50.9654 114.992 50.8452 114.843 50.778 114.758L50.7178 114.677L48.7797 111.688L46.5303 114.472C46.502 114.507 45.4021 115.809 43.4215 117.057C41.4267 118.313 38.6044 119.511 34.958 119.515C34.477 119.515 33.9783 119.494 33.4655 119.448C29.6175 119.105 27.0109 117.821 25.338 116.657C24.5033 116.077 23.9091 115.522 23.5413 115.137C23.3574 114.942 23.2265 114.793 23.1523 114.701L23.0815 114.613L23.078 114.606L21.8543 115.497L23.0957 114.627L18.8268 117.619C18.9576 117.807 20.054 119.328 22.3636 120.937C24.6625 122.546 28.1992 124.222 33.0163 124.643C33.6812 124.703 34.332 124.728 34.9651 124.728C39.9448 124.728 43.8494 123.009 46.4631 121.308C47.2483 120.795 47.9096 120.29 48.472 119.823C48.9141 120.205 49.4305 120.604 50.0282 121.011C52.4438 122.649 56.2034 124.276 61.4484 124.509C61.7985 124.523 62.1381 124.53 62.4741 124.53C67.5387 124.534 71.4044 122.779 73.9297 121.022C74.5521 120.59 75.0933 120.159 75.5636 119.752C76.0163 120.219 76.5433 120.714 77.1516 121.22C79.5319 123.193 83.2278 125.269 88.1616 125.517C88.4552 125.531 88.7452 125.538 89.0316 125.538C91.4331 125.538 93.64 125.036 95.5747 124.307C98.4783 123.211 100.788 121.616 102.404 120.293C102.563 120.162 102.708 120.038 102.857 119.911C103.345 120.382 103.914 120.884 104.593 121.393C107.069 123.253 110.942 125.1 116.13 125.093C116.265 125.093 116.389 125.093 116.505 125.089H116.519C121.344 125.004 125.181 123.218 127.777 121.492C128.594 120.951 129.277 120.417 129.857 119.929C130.405 120.413 131.056 120.937 131.83 121.471C134.373 123.222 138.21 125.008 143.158 125.089L143.463 125.093C145.945 125.093 148.198 124.583 150.14 123.833C153.061 122.705 155.304 121.057 156.842 119.688C156.998 119.55 157.139 119.42 157.281 119.285C157.928 119.862 158.706 120.502 159.629 121.16C161.001 122.132 162.671 123.119 164.612 123.883C166.551 124.647 168.765 125.188 171.187 125.23H171.191L171.47 125.234C173.886 125.234 176.079 124.693 177.971 123.904C180.814 122.719 183.004 121.001 184.514 119.582L184.811 119.296C185.317 119.77 185.907 120.279 186.6 120.795C189.172 122.716 193.133 124.7 198.42 124.937C198.728 124.951 199.032 124.958 199.333 124.958C201.883 124.958 204.136 124.452 206.035 123.681C208.861 122.539 210.898 120.852 212.249 119.437C212.748 119.901 213.331 120.396 214 120.894C216.635 122.854 220.698 124.845 226.089 124.937L226.378 124.94C228.748 124.94 230.891 124.421 232.738 123.66C235.51 122.518 237.629 120.855 239.086 119.487L239.206 119.37C239.698 119.865 240.274 120.392 240.95 120.926C243.482 122.935 247.433 124.976 252.664 124.969C253.067 124.969 253.474 124.958 253.884 124.933C258.91 124.643 262.634 122.631 265.025 120.7C265.538 120.29 265.98 119.883 266.379 119.497C266.814 119.95 267.313 120.424 267.89 120.905C270.348 122.96 274.238 125.068 279.515 125.227C279.734 125.234 279.946 125.238 280.159 125.238C285.276 125.238 289.305 123.321 292 121.443C292.937 120.788 293.715 120.145 294.345 119.568C294.995 120.084 295.784 120.668 296.711 121.269C299.399 123.002 303.194 124.877 307.724 125.22C308.074 125.245 308.421 125.259 308.757 125.259C311.017 125.259 313.079 124.711 314.854 123.925C317.525 122.744 319.587 121.05 321.022 119.657L321.206 119.473C321.747 119.993 322.384 120.555 323.141 121.124C325.801 123.137 329.886 125.209 335.286 125.368C335.513 125.375 335.735 125.379 335.955 125.379C338.54 125.379 340.793 124.912 342.682 124.191C345.405 123.154 347.357 121.616 348.655 120.29C349.119 120.714 349.645 121.16 350.254 121.609C352.783 123.483 356.684 125.375 361.808 125.368C366.947 125.372 370.93 123.448 373.554 121.556C374.399 120.947 375.1 120.346 375.683 119.798C376.288 120.304 377.006 120.859 377.848 121.432C380.458 123.197 384.178 125.1 388.684 125.365C388.943 125.379 389.201 125.386 389.452 125.386C391.737 125.386 393.859 124.82 395.73 124.024C398.538 122.825 400.833 121.114 402.467 119.699C402.655 119.536 402.831 119.381 402.998 119.225C403.592 119.84 404.296 120.523 405.127 121.223C406.404 122.288 407.953 123.377 409.763 124.222C411.574 125.064 413.665 125.662 415.956 125.662H416.169H416.186C418.63 125.62 420.869 125.039 422.828 124.23C425.767 123.006 428.095 121.269 429.718 119.837C429.898 119.678 430.065 119.526 430.227 119.374C430.811 119.943 431.504 120.562 432.339 121.195C435.02 123.232 439.09 125.351 444.378 125.517C444.519 125.521 444.657 125.524 444.795 125.524C446.995 125.524 449.029 124.99 450.818 124.237C453.506 123.101 455.681 121.481 457.227 120.141C457.457 119.939 457.669 119.748 457.874 119.561C458.415 119.993 459.048 120.466 459.791 120.962C462.231 122.585 465.74 124.396 470.076 125.054C470.801 125.163 471.516 125.213 472.216 125.213C474.317 125.213 476.272 124.767 478.013 124.131C480.623 123.172 482.762 121.793 484.287 120.65C485.808 119.504 486.709 118.592 486.777 118.521L483.052 114.875L483.127 114.928Z" fill="black" shape-rendering="crispEdges"/>
<path d="M483.127 114.928L483.056 114.857C482.975 114.942 481.602 116.289 479.562 117.563C478.543 118.199 477.358 118.818 476.103 119.264C474.847 119.71 473.531 119.985 472.219 119.985C471.767 119.985 471.314 119.954 470.858 119.886C467.537 119.388 464.686 117.948 462.688 116.611C461.687 115.946 460.902 115.31 460.382 114.854C460.12 114.624 459.926 114.443 459.802 114.323L459.671 114.192L459.65 114.167L457.648 112.052L455.766 114.277C455.678 114.383 454.274 115.982 452.191 117.478C451.151 118.228 449.945 118.949 448.682 119.466C447.416 119.985 446.104 120.297 444.802 120.297L444.548 120.293C440.59 120.169 437.58 118.603 435.493 117.029C434.457 116.244 433.669 115.462 433.152 114.892C432.894 114.61 432.707 114.376 432.586 114.228L432.462 114.065L432.441 114.037L430.457 111.179L428.271 113.895C428.19 113.998 426.775 115.688 424.547 117.294C423.433 118.097 422.125 118.882 420.692 119.458C419.26 120.035 417.721 120.41 416.098 120.438H415.956C414.584 120.438 413.244 120.077 411.96 119.483C410.043 118.599 408.31 117.17 407.1 115.961C406.496 115.356 406.018 114.811 405.7 114.429C405.541 114.238 405.424 114.086 405.346 113.987L405.265 113.881L405.251 113.86L403.312 111.154L401.151 113.69C401.127 113.722 399.641 115.43 397.41 117.057C396.292 117.874 394.987 118.67 393.622 119.243C392.253 119.816 390.838 120.162 389.448 120.162C389.289 120.162 389.13 120.159 388.974 120.148C385.823 119.978 382.898 118.557 380.776 117.11C379.719 116.392 378.863 115.678 378.29 115.154C378.003 114.892 377.784 114.68 377.646 114.539L377.494 114.383L377.466 114.351L375.298 111.964L373.423 114.578C373.388 114.631 372.299 116.074 370.321 117.446C368.327 118.829 365.511 120.141 361.808 120.145C357.975 120.138 355.227 118.779 353.348 117.404C352.415 116.717 351.722 116.028 351.272 115.526C351.05 115.274 350.887 115.073 350.788 114.946L350.689 114.811L350.675 114.793L348.263 111.175L346.222 115.013C346.218 115.016 346.18 115.091 346.088 115.228C345.755 115.734 344.814 116.993 343.191 118.086C341.557 119.179 339.276 120.148 335.955 120.159C335.788 120.159 335.615 120.155 335.445 120.152C331.311 120.021 328.315 118.482 326.282 116.954C325.27 116.19 324.513 115.437 324.029 114.889C323.785 114.617 323.608 114.394 323.498 114.252L323.385 114.1L323.367 114.075L321.284 110.949L319.091 114.005C319.091 114.005 319.024 114.1 318.883 114.274C318.398 114.882 317.075 116.403 315.258 117.697C314.349 118.348 313.323 118.939 312.227 119.359C311.13 119.78 309.974 120.031 308.753 120.031C308.538 120.031 308.322 120.024 308.103 120.007C304.831 119.773 301.761 118.323 299.537 116.877C298.426 116.159 297.528 115.451 296.923 114.931C296.619 114.673 296.389 114.461 296.24 114.323L296.081 114.167L296.049 114.136L293.952 111.989L292.124 114.358C292.085 114.411 290.896 115.883 288.82 117.28C286.733 118.684 283.819 120.007 280.152 120.007C279.992 120.007 279.833 120.003 279.671 120C275.702 119.869 273.018 118.366 271.214 116.88C270.319 116.137 269.669 115.402 269.251 114.868C269.043 114.602 268.898 114.387 268.806 114.252L268.714 114.111L268.703 114.09L266.528 110.227L264.218 114.015C264.197 114.051 263.324 115.405 261.584 116.756C259.819 118.125 257.237 119.497 253.573 119.717C253.258 119.734 252.954 119.745 252.657 119.745C248.795 119.738 246.057 118.295 244.172 116.82C243.238 116.084 242.542 115.342 242.092 114.804C241.87 114.535 241.707 114.316 241.608 114.175L241.505 114.026L241.491 114.005L239.44 110.673L237.162 113.863L237.116 113.923C236.876 114.245 235.645 115.773 233.742 117.142C232.791 117.828 231.677 118.479 230.442 118.949C229.204 119.42 227.853 119.717 226.371 119.717H226.173C222.028 119.639 219.086 118.16 217.094 116.696C216.108 115.964 215.376 115.236 214.905 114.709C214.672 114.447 214.502 114.235 214.396 114.097L214.29 113.955L214.276 113.934L211.941 110.408L209.851 114.083C209.833 114.121 208.935 115.6 207.199 116.99C206.325 117.69 205.243 118.376 203.948 118.882C202.65 119.388 201.133 119.727 199.326 119.727C199.106 119.727 198.88 119.724 198.654 119.713C194.551 119.519 191.647 118.033 189.706 116.597C188.74 115.879 188.029 115.172 187.573 114.666C187.347 114.411 187.18 114.21 187.081 114.079L186.982 113.945L186.972 113.927L184.899 110.822L182.703 113.849L182.653 113.916C182.392 114.263 181.083 115.865 179.088 117.308C178.091 118.03 176.927 118.712 175.647 119.207C174.363 119.702 172.973 120.01 171.463 120.01H171.265H171.269C169.571 119.982 167.976 119.6 166.515 119.023C164.326 118.164 162.451 116.845 161.153 115.748C160.506 115.2 160 114.709 159.668 114.366C159.502 114.192 159.378 114.058 159.3 113.973L159.219 113.881L159.205 113.863L157.107 111.345L155.134 113.959L155.088 114.019C154.833 114.341 153.532 115.869 151.491 117.251C149.44 118.641 146.713 119.869 143.455 119.869L143.236 119.865C139.515 119.802 136.704 118.482 134.769 117.16C133.807 116.502 133.079 115.844 132.605 115.37C132.368 115.133 132.194 114.942 132.088 114.818L131.979 114.687L131.964 114.67L129.991 112.077L127.901 114.585C127.858 114.638 126.691 115.975 124.689 117.266C122.673 118.567 119.865 119.809 116.417 119.865L116.116 119.869C112.159 119.862 109.485 118.528 107.699 117.206C106.815 116.544 106.167 115.883 105.757 115.409C105.552 115.172 105.407 114.981 105.322 114.861L105.237 114.737L105.23 114.723L103.366 111.72L101.053 114.408C101.053 114.408 100.972 114.5 100.813 114.67C100.254 115.257 98.7365 116.725 96.6392 117.994C94.5349 119.271 91.8964 120.321 89.0281 120.318C88.8265 120.318 88.6249 120.314 88.4198 120.304C84.83 120.116 82.2411 118.652 80.4656 117.195C79.5849 116.47 78.9271 115.748 78.5027 115.228C78.2905 114.967 78.1384 114.758 78.0429 114.624L77.9474 114.482L77.9333 114.461L75.8819 111.09L73.5866 114.316L73.583 114.32C73.4592 114.486 72.4371 115.773 70.5839 116.972C68.72 118.175 66.0745 119.306 62.4564 119.313C62.1982 119.313 61.9329 119.306 61.6677 119.296C57.374 119.094 54.633 117.832 52.9319 116.686C52.083 116.113 51.4994 115.564 51.1422 115.182C50.9654 114.992 50.8452 114.843 50.778 114.758L50.7178 114.677L48.7797 111.688L46.5303 114.472C46.502 114.507 45.4021 115.809 43.4215 117.057C41.4267 118.313 38.6044 119.511 34.958 119.515C34.477 119.515 33.9783 119.494 33.4655 119.448C29.6175 119.105 27.0109 117.821 25.338 116.657C24.5033 116.077 23.9091 115.522 23.5413 115.137C23.3574 114.942 23.2265 114.793 23.1523 114.701L23.0815 114.613L23.078 114.606L21.8543 115.497L23.0957 114.627L18.8268 117.619C18.9576 117.807 20.054 119.328 22.3636 120.937C24.6625 122.546 28.1992 124.222 33.0163 124.643C33.6812 124.703 34.332 124.728 34.9651 124.728C39.9448 124.728 43.8494 123.009 46.4631 121.308C47.2483 120.795 47.9096 120.29 48.472 119.823C48.9141 120.205 49.4305 120.604 50.0282 121.011C52.4438 122.649 56.2034 124.276 61.4484 124.509C61.7985 124.523 62.1381 124.53 62.4741 124.53C67.5387 124.534 71.4044 122.779 73.9297 121.022C74.5521 120.59 75.0933 120.159 75.5636 119.752C76.0163 120.219 76.5433 120.714 77.1516 121.22C79.5319 123.193 83.2278 125.269 88.1616 125.517C88.4552 125.531 88.7452 125.538 89.0316 125.538C91.4331 125.538 93.64 125.036 95.5747 124.307C98.4783 123.211 100.788 121.616 102.404 120.293C102.563 120.162 102.708 120.038 102.857 119.911C103.345 120.382 103.914 120.884 104.593 121.393C107.069 123.253 110.942 125.1 116.13 125.093C116.265 125.093 116.389 125.093 116.505 125.089H116.519C121.344 125.004 125.181 123.218 127.777 121.492C128.594 120.951 129.277 120.417 129.857 119.929C130.405 120.413 131.056 120.937 131.83 121.471C134.373 123.222 138.21 125.008 143.158 125.089L143.463 125.093C145.945 125.093 148.198 124.583 150.14 123.833C153.061 122.705 155.304 121.057 156.842 119.688C156.998 119.55 157.139 119.42 157.281 119.285C157.928 119.862 158.706 120.502 159.629 121.16C161.001 122.132 162.671 123.119 164.612 123.883C166.551 124.647 168.765 125.188 171.187 125.23H171.191L171.47 125.234C173.886 125.234 176.079 124.693 177.971 123.904C180.814 122.719 183.004 121.001 184.514 119.582L184.811 119.296C185.317 119.77 185.907 120.279 186.6 120.795C189.172 122.716 193.133 124.7 198.42 124.937C198.728 124.951 199.032 124.958 199.333 124.958C201.883 124.958 204.136 124.452 206.035 123.681C208.861 122.539 210.898 120.852 212.249 119.437C212.748 119.901 213.331 120.396 214 120.894C216.635 122.854 220.698 124.845 226.089 124.937L226.378 124.94C228.748 124.94 230.891 124.421 232.738 123.66C235.51 122.518 237.629 120.855 239.086 119.487L239.206 119.37C239.698 119.865 240.274 120.392 240.95 120.926C243.482 122.935 247.433 124.976 252.664 124.969C253.067 124.969 253.474 124.958 253.884 124.933C258.91 124.643 262.634 122.631 265.025 120.7C265.538 120.29 265.98 119.883 266.379 119.497C266.814 119.95 267.313 120.424 267.89 120.905C270.348 122.96 274.238 125.068 279.515 125.227C279.734 125.234 279.946 125.238 280.159 125.238C285.276 125.238 289.305 123.321 292 121.443C292.937 120.788 293.715 120.145 294.345 119.568C294.995 120.084 295.784 120.668 296.711 121.269C299.399 123.002 303.194 124.877 307.724 125.22C308.074 125.245 308.421 125.259 308.757 125.259C311.017 125.259 313.079 124.711 314.854 123.925C317.525 122.744 319.587 121.05 321.022 119.657L321.206 119.473C321.747 119.993 322.384 120.555 323.141 121.124C325.801 123.137 329.886 125.209 335.286 125.368C335.513 125.375 335.735 125.379 335.955 125.379C338.54 125.379 340.793 124.912 342.682 124.191C345.405 123.154 347.357 121.616 348.655 120.29C349.119 120.714 349.645 121.16 350.254 121.609C352.783 123.483 356.684 125.375 361.808 125.368C366.947 125.372 370.93 123.448 373.554 121.556C374.399 120.947 375.1 120.346 375.683 119.798C376.288 120.304 377.006 120.859 377.848 121.432C380.458 123.197 384.178 125.1 388.684 125.365C388.943 125.379 389.201 125.386 389.452 125.386C391.737 125.386 393.859 124.82 395.73 124.024C398.538 122.825 400.833 121.114 402.467 119.699C402.655 119.536 402.831 119.381 402.998 119.225C403.592 119.84 404.296 120.523 405.127 121.223C406.404 122.288 407.953 123.377 409.763 124.222C411.574 125.064 413.665 125.662 415.956 125.662H416.169H416.186C418.63 125.62 420.869 125.039 422.828 124.23C425.767 123.006 428.095 121.269 429.718 119.837C429.898 119.678 430.065 119.526 430.227 119.374C430.811 119.943 431.504 120.562 432.339 121.195C435.02 123.232 439.09 125.351 444.378 125.517C444.519 125.521 444.657 125.524 444.795 125.524C446.995 125.524 449.029 124.99 450.818 124.237C453.506 123.101 455.681 121.481 457.227 120.141C457.457 119.939 457.669 119.748 457.874 119.561C458.415 119.993 459.048 120.466 459.791 120.962C462.231 122.585 465.74 124.396 470.076 125.054C470.801 125.163 471.516 125.213 472.216 125.213C474.317 125.213 476.272 124.767 478.013 124.131C480.623 123.172 482.762 121.793 484.287 120.65C485.808 119.504 486.709 118.592 486.777 118.521L483.052 114.875L483.127 114.928Z" stroke="white" stroke-opacity="0.48" stroke-width="4" shape-rendering="crispEdges" mask="url(#path-46-outside-2_104_57)"/>
</g>
<defs>
<filter id="filter0_d_104_57" x="0" y="1.37579" width="77.3534" height="94.4717" filterUnits="userSpaceOnUse" color-interpolation-filters="sRGB">
<feFlood flood-opacity="0" result="BackgroundImageFix"/>
<feColorMatrix in="SourceAlpha" type="matrix" values="0 0 0 0 0 0 0 0 0 0 0 0 0 0 0 0 0 0 127 0" result="hardAlpha"/>
<feOffset/>
<feGaussianBlur stdDeviation="6.5"/>
<feComposite in2="hardAlpha" operator="out"/>
<feColorMatrix type="matrix" values="0 0 0 0 1 0 0 0 0 1 0 0 0 0 1 0 0 0 0.31 0"/>
<feBlend mode="normal" in2="BackgroundImageFix" result="effect1_dropShadow_104_57"/>
<feBlend mode="normal" in="SourceGraphic" in2="effect1_dropShadow_104_57" result="shape"/>
</filter>
<filter id="filter1_d_104_57" x="58.8235" y="1.37933" width="38.0815" height="94.4682" filterUnits="userSpaceOnUse" color-interpolation-filters="sRGB">
<feFlood flood-opacity="0" result="BackgroundImageFix"/>
<feColorMatrix in="SourceAlpha" type="matrix" values="0 0 0 0 0 0 0 0 0 0 0 0 0 0 0 0 0 0 127 0" result="hardAlpha"/>
<feOffset/>
<feGaussianBlur stdDeviation="6.5"/>
<feComposite in2="hardAlpha" operator="out"/>
<feColorMatrix type="matrix" values="0 0 0 0 1 0 0 0 0 1 0 0 0 0 1 0 0 0 0.31 0"/>
<feBlend mode="normal" in2="BackgroundImageFix" result="effect1_dropShadow_104_57"/>
<feBlend mode="normal" in="SourceGraphic" in2="effect1_dropShadow_104_57" result="shape"/>
</filter>
<filter id="filter2_d_104_57" x="74.9523" y="1.37933" width="82.8867" height="94.4682" filterUnits="userSpaceOnUse" color-interpolation-filters="sRGB">
<feFlood flood-opacity="0" result="BackgroundImageFix"/>
<feColorMatrix in="SourceAlpha" type="matrix" values="0 0 0 0 0 0 0 0 0 0 0 0 0 0 0 0 0 0 127 0" result="hardAlpha"/>
<feOffset/>
<feGaussianBlur stdDeviation="6.5"/>
<feComposite in2="hardAlpha" operator="out"/>
<feColorMatrix type="matrix" values="0 0 0 0 1 0 0 0 0 1 0 0 0 0 1 0 0 0 0.31 0"/>
<feBlend mode="normal" in2="BackgroundImageFix" result="effect1_dropShadow_104_57"/>
<feBlend mode="normal" in="SourceGraphic" in2="effect1_dropShadow_104_57" result="shape"/>
</filter>
<filter id="filter3_d_104_57" x="135.692" y="1.37933" width="71.7268" height="94.4682" filterUnits="userSpaceOnUse" color-interpolation-filters="sRGB">
<feFlood flood-opacity="0" result="BackgroundImageFix"/>
<feColorMatrix in="SourceAlpha" type="matrix" values="0 0 0 0 0 0 0 0 0 0 0 0 0 0 0 0 0 0 127 0" result="hardAlpha"/>
<feOffset/>
<feGaussianBlur stdDeviation="6.5"/>
<feComposite in2="hardAlpha" operator="out"/>
<feColorMatrix type="matrix" values="0 0 0 0 1 0 0 0 0 1 0 0 0 0 1 0 0 0 0.31 0"/>
<feBlend mode="normal" in2="BackgroundImageFix" result="effect1_dropShadow_104_57"/>
<feBlend mode="normal" in="SourceGraphic" in2="effect1_dropShadow_104_57" result="shape"/>
</filter>
<filter id="filter4_d_104_57" x="187.944" y="1.37579" width="77.3534" height="94.4717" filterUnits="userSpaceOnUse" color-interpolation-filters="sRGB">
<feFlood flood-opacity="0" result="BackgroundImageFix"/>
<feColorMatrix in="SourceAlpha" type="matrix" values="0 0 0 0 0 0 0 0 0 0 0 0 0 0 0 0 0 0 127 0" result="hardAlpha"/>
<feOffset/>
<feGaussianBlur stdDeviation="6.5"/>
<feComposite in2="hardAlpha" operator="out"/>
<feColorMatrix type="matrix" values="0 0 0 0 1 0 0 0 0 1 0 0 0 0 1 0 0 0 0.31 0"/>
<feBlend mode="normal" in2="BackgroundImageFix" result="effect1_dropShadow_104_57"/>
<feBlend mode="normal" in="SourceGraphic" in2="effect1_dropShadow_104_57" result="shape"/>
</filter>
<filter id="filter5_d_104_57" x="9.0647" y="120.66" width="52.1437" height="66.1705" filterUnits="userSpaceOnUse" color-interpolation-filters="sRGB">
<feFlood flood-opacity="0" result="BackgroundImageFix"/>
<feColorMatrix in="SourceAlpha" type="matrix" values="0 0 0 0 0 0 0 0 0 0 0 0 0 0 0 0 0 0 127 0" result="hardAlpha"/>
<feOffset/>
<feGaussianBlur stdDeviation="6.5"/>
<feComposite in2="hardAlpha" operator="out"/>
<feColorMatrix type="matrix" values="0 0 0 0 1 0 0 0 0 1 0 0 0 0 1 0 0 0 0.31 0"/>
<feBlend mode="normal" in2="BackgroundImageFix" result="effect1_dropShadow_104_57"/>
<feBlend mode="normal" in="SourceGraphic" in2="effect1_dropShadow_104_57" result="shape"/>
</filter>
<filter id="filter6_d_104_57" x="37.1541" y="120.66" width="60.1895" height="66.1705" filterUnits="userSpaceOnUse" color-interpolation-filters="sRGB">
<feFlood flood-opacity="0" result="BackgroundImageFix"/>
<feColorMatrix in="SourceAlpha" type="matrix" values="0 0 0 0 0 0 0 0 0 0 0 0 0 0 0 0 0 0 127 0" result="hardAlpha"/>
<feOffset/>
<feGaussianBlur stdDeviation="6.5"/>
<feComposite in2="hardAlpha" operator="out"/>
<feColorMatrix type="matrix" values="0 0 0 0 1 0 0 0 0 1 0 0 0 0 1 0 0 0 0.31 0"/>
<feBlend mode="normal" in2="BackgroundImageFix" result="effect1_dropShadow_104_57"/>
<feBlend mode="normal" in="SourceGraphic" in2="effect1_dropShadow_104_57" result="shape"/>
</filter>
<filter id="filter7_d_104_57" x="79.1387" y="120.66" width="64.9574" height="66.1705" filterUnits="userSpaceOnUse" color-interpolation-filters="sRGB">
<feFlood flood-opacity="0" result="BackgroundImageFix"/>
<feColorMatrix in="SourceAlpha" type="matrix" values="0 0 0 0 0 0 0 0 0 0 0 0 0 0 0 0 0 0 127 0" result="hardAlpha"/>
<feOffset/>
<feGaussianBlur stdDeviation="6.5"/>
<feComposite in2="hardAlpha" operator="out"/>
<feColorMatrix type="matrix" values="0 0 0 0 1 0 0 0 0 1 0 0 0 0 1 0 0 0 0.31 0"/>
<feBlend mode="normal" in2="BackgroundImageFix" result="effect1_dropShadow_104_57"/>
<feBlend mode="normal" in="SourceGraphic" in2="effect1_dropShadow_104_57" result="shape"/>
</filter>
<filter id="filter8_d_104_57" x="130.758" y="120.66" width="34.5341" height="66.1705" filterUnits="userSpaceOnUse" color-interpolation-filters="sRGB">
<feFlood flood-opacity="0" result="BackgroundImageFix"/>
<feColorMatrix in="SourceAlpha" type="matrix" values="0 0 0 0 0 0 0 0 0 0 0 0 0 0 0 0 0 0 127 0" result="hardAlpha"/>
<feOffset/>
<feGaussianBlur stdDeviation="6.5"/>
<feComposite in2="hardAlpha" operator="out"/>
<feColorMatrix type="matrix" values="0 0 0 0 1 0 0 0 0 1 0 0 0 0 1 0 0 0 0.31 0"/>
<feBlend mode="normal" in2="BackgroundImageFix" result="effect1_dropShadow_104_57"/>
<feBlend mode="normal" in="SourceGraphic" in2="effect1_dropShadow_104_57" result="shape"/>
</filter>
<filter id="filter9_d_104_57" x="151.218" y="120.66" width="51.355" height="66.1705" filterUnits="userSpaceOnUse" color-interpolation-filters="sRGB">
<feFlood flood-opacity="0" result="BackgroundImageFix"/>
<feColorMatrix in="SourceAlpha" type="matrix" values="0 0 0 0 0 0 0 0 0 0 0 0 0 0 0 0 0 0 127 0" result="hardAlpha"/>
<feOffset/>
<feGaussianBlur stdDeviation="6.5"/>
<feComposite in2="hardAlpha" operator="out"/>
<feColorMatrix type="matrix" values="0 0 0 0 1 0 0 0 0 1 0 0 0 0 1 0 0 0 0.31 0"/>
<feBlend mode="normal" in2="BackgroundImageFix" result="effect1_dropShadow_104_57"/>
<feBlend mode="normal" in="SourceGraphic" in2="effect1_dropShadow_104_57" result="shape"/>
</filter>
<filter id="filter10_d_104_57" x="176.384" y="120.66" width="61.6086" height="66.1705" filterUnits="userSpaceOnUse" color-interpolation-filters="sRGB">
<feFlood flood-opacity="0" result="BackgroundImageFix"/>
<feColorMatrix in="SourceAlpha" type="matrix" values="0 0 0 0 0 0 0 0 0 0 0 0 0 0 0 0 0 0 127 0" result="hardAlpha"/>
<feOffset/>
<feGaussianBlur stdDeviation="6.5"/>
<feComposite in2="hardAlpha" operator="out"/>
<feColorMatrix type="matrix" values="0 0 0 0 1 0 0 0 0 1 0 0 0 0 1 0 0 0 0.31 0"/>
<feBlend mode="normal" in2="BackgroundImageFix" result="effect1_dropShadow_104_57"/>
<feBlend mode="normal" in="SourceGraphic" in2="effect1_dropShadow_104_57" result="shape"/>
</filter>
<filter id="filter11_d_104_57" x="237.86" y="0.944275" width="114.316" height="94.4682" filterUnits="userSpaceOnUse" color-interpolation-filters="sRGB">
<feFlood flood-opacity="0" result="BackgroundImageFix"/>
<feColorMatrix in="SourceAlpha" type="matrix" values="0 0 0 0 0 0 0 0 0 0 0 0 0 0 0 0 0 0 127 0" result="hardAlpha"/>
<feOffset/>
<feGaussianBlur stdDeviation="6.5"/>
<feComposite in2="hardAlpha" operator="out"/>
<feColorMatrix type="matrix" values="0 0 0 0 1 0 0 0 0 1 0 0 0 0 1 0 0 0 0.31 0"/>
<feBlend mode="normal" in2="BackgroundImageFix" result="effect1_dropShadow_104_57"/>
<feBlend mode="normal" in="SourceGraphic" in2="effect1_dropShadow_104_57" result="shape"/>
</filter>
<filter id="filter12_d_104_57" x="328.562" y="0.944275" width="76.0487" height="94.4682" filterUnits="userSpaceOnUse" color-interpolation-filters="sRGB">
<feFlood flood-opacity="0" result="BackgroundImageFix"/>
<feColorMatrix in="SourceAlpha" type="matrix" values="0 0 0 0 0 0 0 0 0 0 0 0 0 0 0 0 0 0 127 0" result="hardAlpha"/>
<feOffset/>
<feGaussianBlur stdDeviation="6.5"/>
<feComposite in2="hardAlpha" operator="out"/>
<feColorMatrix type="matrix" values="0 0 0 0 1 0 0 0 0 1 0 0 0 0 1 0 0 0 0.31 0"/>
<feBlend mode="normal" in2="BackgroundImageFix" result="effect1_dropShadow_104_57"/>
<feBlend mode="normal" in="SourceGraphic" in2="effect1_dropShadow_104_57" result="shape"/>
</filter>
<filter id="filter13_d_104_57" x="377.115" y="0" width="83.1263" height="96.3533" filterUnits="userSpaceOnUse" color-interpolation-filters="sRGB">
<feFlood flood-opacity="0" result="BackgroundImageFix"/>
<feColorMatrix in="SourceAlpha" type="matrix" values="0 0 0 0 0 0 0 0 0 0 0 0 0 0 0 0 0 0 127 0" result="hardAlpha"/>
<feOffset/>
<feGaussianBlur stdDeviation="6.5"/>
<feComposite in2="hardAlpha" operator="out"/>
<feColorMatrix type="matrix" values="0 0 0 0 1 0 0 0 0 1 0 0 0 0 1 0 0 0 0.31 0"/>
<feBlend mode="normal" in2="BackgroundImageFix" result="effect1_dropShadow_104_57"/>
<feBlend mode="normal" in="SourceGraphic" in2="effect1_dropShadow_104_57" result="shape"/>
</filter>
<filter id="filter14_d_104_57" x="434.842" y="0.944275" width="77.5518" height="94.4682" filterUnits="userSpaceOnUse" color-interpolation-filters="sRGB">
<feFlood flood-opacity="0" result="BackgroundImageFix"/>
<feColorMatrix in="SourceAlpha" type="matrix" values="0 0 0 0 0 0 0 0 0 0 0 0 0 0 0 0 0 0 127 0" result="hardAlpha"/>
<feOffset/>
<feGaussianBlur stdDeviation="6.5"/>
<feComposite in2="hardAlpha" operator="out"/>
<feColorMatrix type="matrix" values="0 0 0 0 1 0 0 0 0 1 0 0 0 0 1 0 0 0 0.31 0"/>
<feBlend mode="normal" in2="BackgroundImageFix" result="effect1_dropShadow_104_57"/>
<feBlend mode="normal" in="SourceGraphic" in2="effect1_dropShadow_104_57" result="shape"/>
</filter>
<filter id="filter15_d_104_57" x="217.522" y="120.731" width="55.6451" height="66.0468" filterUnits="userSpaceOnUse" color-interpolation-filters="sRGB">
<feFlood flood-opacity="0" result="BackgroundImageFix"/>
<feColorMatrix in="SourceAlpha" type="matrix" values="0 0 0 0 0 0 0 0 0 0 0 0 0 0 0 0 0 0 127 0" result="hardAlpha"/>
<feOffset/>
<feGaussianBlur stdDeviation="6.5"/>
<feComposite in2="hardAlpha" operator="out"/>
<feColorMatrix type="matrix" values="0 0 0 0 1 0 0 0 0 1 0 0 0 0 1 0 0 0 0.31 0"/>
<feBlend mode="normal" in2="BackgroundImageFix" result="effect1_dropShadow_104_57"/>
<feBlend mode="normal" in="SourceGraphic" in2="effect1_dropShadow_104_57" result="shape"/>
</filter>
<filter id="filter16_d_104_57" x="254.142" y="120.731" width="38.4069" height="66.0468" filterUnits="userSpaceOnUse" color-interpolation-filters="sRGB">
<feFlood flood-opacity="0" result="BackgroundImageFix"/>
<feColorMatrix in="SourceAlpha" type="matrix" values="0 0 0 0 0 0 0 0 0 0 0 0 0 0 0 0 0 0 127 0" result="hardAlpha"/>
<feOffset/>
<feGaussianBlur stdDeviation="6.5"/>
<feComposite in2="hardAlpha" operator="out"/>
<feColorMatrix type="matrix" values="0 0 0 0 1 0 0 0 0 1 0 0 0 0 1 0 0 0 0.31 0"/>
<feBlend mode="normal" in2="BackgroundImageFix" result="effect1_dropShadow_104_57"/>
<feBlend mode="normal" in="SourceGraphic" in2="effect1_dropShadow_104_57" result="shape"/>
</filter>
<filter id="filter17_d_104_57" x="275.21" y="120.731" width="56.5894" height="66.0468" filterUnits="userSpaceOnUse" color-interpolation-filters="sRGB">
<feFlood flood-opacity="0" result="BackgroundImageFix"/>
<feColorMatrix in="SourceAlpha" type="matrix" values="0 0 0 0 0 0 0 0 0 0 0 0 0 0 0 0 0 0 127 0" result="hardAlpha"/>
<feOffset/>
<feGaussianBlur stdDeviation="6.5"/>
<feComposite in2="hardAlpha" operator="out"/>
<feColorMatrix type="matrix" values="0 0 0 0 1 0 0 0 0 1 0 0 0 0 1 0 0 0 0.31 0"/>
<feBlend mode="normal" in2="BackgroundImageFix" result="effect1_dropShadow_104_57"/>
<feBlend mode="normal" in="SourceGraphic" in2="effect1_dropShadow_104_57" result="shape"/>
</filter>
<filter id="filter18_d_104_57" x="314.192" y="120.731" width="57.7459" height="66.0468" filterUnits="userSpaceOnUse" color-interpolation-filters="sRGB">
<feFlood flood-opacity="0" result="BackgroundImageFix"/>
<feColorMatrix in="SourceAlpha" type="matrix" values="0 0 0 0 0 0 0 0 0 0 0 0 0 0 0 0 0 0 127 0" result="hardAlpha"/>
<feOffset/>
<feGaussianBlur stdDeviation="6.5"/>
<feComposite in2="hardAlpha" operator="out"/>
<feColorMatrix type="matrix" values="0 0 0 0 1 0 0 0 0 1 0 0 0 0 1 0 0 0 0.31 0"/>
<feBlend mode="normal" in2="BackgroundImageFix" result="effect1_dropShadow_104_57"/>
<feBlend mode="normal" in="SourceGraphic" in2="effect1_dropShadow_104_57" result="shape"/>
</filter>
<filter id="filter19_d_104_57" x="356.906" y="120.731" width="55.7512" height="66.0468" filterUnits="userSpaceOnUse" color-interpolation-filters="sRGB">
<feFlood flood-opacity="0" result="BackgroundImageFix"/>
<feColorMatrix in="SourceAlpha" type="matrix" values="0 0 0 0 0 0 0 0 0 0 0 0 0 0 0 0 0 0 127 0" result="hardAlpha"/>
<feOffset/>
<feGaussianBlur stdDeviation="6.5"/>
<feComposite in2="hardAlpha" operator="out"/>
<feColorMatrix type="matrix" values="0 0 0 0 1 0 0 0 0 1 0 0 0 0 1 0 0 0 0.31 0"/>
<feBlend mode="normal" in2="BackgroundImageFix" result="effect1_dropShadow_104_57"/>
<feBlend mode="normal" in="SourceGraphic" in2="effect1_dropShadow_104_57" result="shape"/>
</filter>
<filter id="filter20_d_104_57" x="391.919" y="120.201" width="59.8829" height="67.0972" filterUnits="userSpaceOnUse" color-interpolation-filters="sRGB">
<feFlood flood-opacity="0" result="BackgroundImageFix"/>
<feColorMatrix in="SourceAlpha" type="matrix" values="0 0 0 0 0 0 0 0 0 0 0 0 0 0 0 0 0 0 127 0" result="hardAlpha"/>
<feOffset/>
<feGaussianBlur stdDeviation="6.5"/>
<feComposite in2="hardAlpha" operator="out"/>
<feColorMatrix type="matrix" values="0 0 0 0 1 0 0 0 0 1 0 0 0 0 1 0 0 0 0.31 0"/>
<feBlend mode="normal" in2="BackgroundImageFix" result="effect1_dropShadow_104_57"/>
<feBlend mode="normal" in="SourceGraphic" in2="effect1_dropShadow_104_57" result="shape"/>
</filter>
<filter id="filter21_d_104_57" x="431.481" y="120.201" width="59.8829" height="67.0972" filterUnits="userSpaceOnUse" color-interpolation-filters="sRGB">
<feFlood flood-opacity="0" result="BackgroundImageFix"/>
<feColorMatrix in="SourceAlpha" type="matrix" values="0 0 0 0 0 0 0 0 0 0 0 0 0 0 0 0 0 0 127 0" result="hardAlpha"/>
<feOffset/>
<feGaussianBlur stdDeviation="6.5"/>
<feComposite in2="hardAlpha" operator="out"/>
<feColorMatrix type="matrix" values="0 0 0 0 1 0 0 0 0 1 0 0 0 0 1 0 0 0 0.31 0"/>
<feBlend mode="normal" in2="BackgroundImageFix" result="effect1_dropShadow_104_57"/>
<feBlend mode="normal" in="SourceGraphic" in2="effect1_dropShadow_104_57" result="shape"/>
</filter>
<filter id="filter22_d_104_57" x="3.06186" y="74.8503" width="499.543" height="47.3708" filterUnits="userSpaceOnUse" color-interpolation-filters="sRGB">
<feFlood flood-opacity="0" result="BackgroundImageFix"/>
<feColorMatrix in="SourceAlpha" type="matrix" values="0 0 0 0 0 0 0 0 0 0 0 0 0 0 0 0 0 0 127 0" result="hardAlpha"/>
<feOffset/>
<feGaussianBlur stdDeviation="6.5"/>
<feComposite in2="hardAlpha" operator="out"/>
<feColorMatrix type="matrix" values="0 0 0 0 1 0 0 0 0 1 0 0 0 0 1 0 0 0 0.31 0"/>
<feBlend mode="normal" in2="BackgroundImageFix" result="effect1_dropShadow_104_57"/>
<feBlend mode="normal" in="SourceGraphic" in2="effect1_dropShadow_104_57" result="shape"/>
</filter>
<filter id="filter23_d_104_57" x="3.04416" y="93.2733" width="499.539" height="47.3886" filterUnits="userSpaceOnUse" color-interpolation-filters="sRGB">
<feFlood flood-opacity="0" result="BackgroundImageFix"/>
<feColorMatrix in="SourceAlpha" type="matrix" values="0 0 0 0 0 0 0 0 0 0 0 0 0 0 0 0 0 0 127 0" result="hardAlpha"/>
<feOffset/>
<feGaussianBlur stdDeviation="6.5"/>
<feComposite in2="hardAlpha" operator="out"/>
<feColorMatrix type="matrix" values="0 0 0 0 1 0 0 0 0 1 0 0 0 0 1 0 0 0 0.31 0"/>
<feBlend mode="normal" in2="BackgroundImageFix" result="effect1_dropShadow_104_57"/>
<feBlend mode="normal" in="SourceGraphic" in2="effect1_dropShadow_104_57" result="shape"/>
</filter>
</defs>
</svg>
