<svg width="187" height="187" viewBox="0 0 187 187" fill="none" xmlns="http://www.w3.org/2000/svg">
<path d="M30.3404 82.1287L48.2237 82.9029L64.362 114.19H84.2659L67.2551 79.602C72.6409 77.6796 77.6112 73.9707 80.4098 68.9437C81.5542 66.8854 82.4304 64.6873 83.0611 62.4174C86.3054 50.7583 83.1707 36.244 71.9384 30.0349C65.4309 26.4355 57.813 26.0088 50.5389 26.0088H13.39V114.194H30.3404V82.1287ZM30.3404 42.6533H45.9122C46.9282 42.6533 48.0877 42.6344 49.3832 42.5891C50.6786 42.5475 51.9741 42.5702 53.2733 42.6533C54.5687 42.7401 55.8189 42.9101 57.0237 43.1631C58.2247 43.4199 59.2935 43.8014 60.2189 44.3113C61.7938 45.2479 63.0893 46.5472 64.109 48.209C65.125 49.8708 65.6386 51.5515 65.6386 53.2548C65.6386 55.215 65.1741 57.1109 64.2487 58.9389C63.3234 60.7707 61.9336 62.1983 60.0829 63.2181C58.0434 64.3247 55.8491 64.9025 53.4848 64.9441C51.1243 64.9894 48.7864 65.0083 46.4712 65.0083H30.3442V42.6533H30.3404Z" fill="black"/>
<path d="M159.27 75.9725L158.605 79.8286H158.382L144.907 25.0948H129.399L116.89 79.8286H116.671L106.485 25.0948L88.2354 25.6387L106.832 112.925H123.035L137.047 54.0253H137.266L151.04 112.925H167.586L185.87 25.0948H167.934L159.27 75.9725Z" fill="black"/>
<path d="M177.153 128.84C177.1 128.878 174.759 130.34 171.575 131.752C169.981 132.459 168.176 133.154 166.382 133.652C164.588 134.154 162.801 134.453 161.291 134.449L160.981 134.445C157.551 134.37 154.047 133.025 151.456 131.616C150.16 130.918 149.099 130.219 148.381 129.713C148.023 129.46 147.751 129.252 147.577 129.116L147.392 128.969L147.358 128.942L144.484 126.518L141.791 129.116C141.787 129.12 141.708 129.195 141.542 129.335C140.949 129.834 139.332 131.08 136.93 132.175C134.524 133.271 131.359 134.215 127.545 134.215C124.1 134.234 120.161 132.953 117.185 131.582C115.697 130.903 114.443 130.215 113.578 129.713C113.147 129.46 112.815 129.252 112.596 129.112L112.358 128.958L112.309 128.927L109.967 127.326L107.614 128.912C107.478 129.003 105.356 130.397 102.414 131.715C99.4827 133.048 95.721 134.241 92.5976 134.219L92.2388 134.215H92.2426C87.48 134.083 84.0431 132.67 81.7543 131.326C80.6175 130.653 79.7791 129.996 79.2503 129.539C78.9859 129.309 78.8009 129.127 78.6951 129.022L78.5969 128.92L75.9191 125.83L72.7768 128.482C72.7202 128.531 71.0206 129.917 68.256 131.329C65.4838 132.749 61.6616 134.173 57.3674 134.457C57.1634 134.468 56.9595 134.475 56.7555 134.475C55.4072 134.479 53.7983 134.185 52.178 133.682C49.7419 132.935 47.3021 131.734 45.527 130.725C44.6357 130.223 43.9105 129.77 43.4158 129.449C43.1703 129.29 42.9814 129.161 42.8606 129.078L42.7322 128.988L42.7095 128.973L42.7057 128.969L40.2583 127.224L37.8261 128.999C37.7127 129.082 35.7715 130.453 33.0219 131.752C30.2724 133.067 26.7184 134.241 23.6139 134.222L23.2664 134.219C19.8219 134.147 15.8638 132.761 12.8801 131.307C11.3845 130.585 10.1268 129.864 9.26191 129.335C8.82757 129.071 8.49521 128.852 8.27616 128.708L8.03822 128.546L7.98912 128.512L3.151 135.322C3.28319 135.412 5.64748 137.093 9.25058 138.83C12.865 140.556 17.6993 142.411 23.0473 142.569C23.2399 142.573 23.425 142.577 23.6139 142.577C28.8183 142.554 33.4676 140.802 36.9196 139.151C38.2377 138.513 39.3746 137.886 40.2885 137.342C41.2403 137.912 42.4225 138.581 43.7859 139.261C45.5157 140.118 47.5249 140.99 49.7117 141.67C51.8985 142.343 54.2666 142.834 56.7555 142.837C57.1445 142.837 57.5298 142.826 57.9112 142.8H57.9188C63.8975 142.395 68.8754 140.435 72.3916 138.6C73.468 138.037 74.3933 137.489 75.1864 136.987C75.8474 137.478 76.6103 137.999 77.5054 138.528C80.7761 140.466 85.6671 142.407 92.0122 142.577H92.016C92.2086 142.581 92.4012 142.584 92.5938 142.584C95.1998 142.581 97.6925 142.127 99.9851 141.489C103.422 140.526 106.428 139.14 108.623 137.988C109.106 137.735 109.54 137.493 109.941 137.27C110.942 137.837 112.211 138.509 113.71 139.196C117.332 140.832 122.185 142.562 127.537 142.581C133.689 142.581 138.648 140.771 142.048 138.97C143.098 138.415 143.985 137.863 144.744 137.353C145.522 137.86 146.429 138.415 147.482 138.985C150.795 140.76 155.391 142.656 160.754 142.811C160.932 142.815 161.109 142.818 161.283 142.818C163.874 142.815 166.378 142.343 168.723 141.685C172.236 140.696 175.389 139.272 177.72 138.09C180.046 136.908 181.534 135.967 181.621 135.911L177.852 129.977L177.153 128.84Z" fill="black"/>
<path d="M177.153 149.439C177.097 149.477 174.759 150.939 171.575 152.347C169.981 153.054 168.176 153.749 166.382 154.247C164.588 154.75 162.801 155.048 161.291 155.044L160.981 155.04C157.551 154.965 154.047 153.62 151.456 152.212C150.16 151.513 149.099 150.814 148.381 150.308C148.023 150.055 147.751 149.847 147.577 149.711L147.392 149.564L147.358 149.537L144.484 147.113L141.791 149.711C141.787 149.715 141.708 149.791 141.541 149.93C140.949 150.429 139.332 151.675 136.93 152.77C134.524 153.866 131.359 154.81 127.545 154.81C124.1 154.829 120.161 153.549 117.185 152.178C115.697 151.498 114.443 150.81 113.578 150.308C113.147 150.055 112.815 149.847 112.596 149.707L112.358 149.553L112.309 149.522L109.967 147.921L107.614 149.507C107.478 149.598 105.356 150.992 102.414 152.31C99.4827 153.643 95.721 154.836 92.5976 154.814L92.2388 154.81H92.2426C87.48 154.678 84.0431 153.265 81.7543 151.921C80.6175 151.248 79.779 150.591 79.2503 150.134C78.9859 149.904 78.8008 149.723 78.6951 149.617L78.5969 149.515L75.9191 146.425L72.7768 149.077C72.7202 149.126 71.0206 150.512 68.2559 151.924C65.4837 153.345 61.6616 154.772 57.3636 155.052C57.1634 155.063 56.9594 155.071 56.7517 155.071C55.4034 155.074 53.7945 154.78 52.1742 154.277C49.7382 153.53 47.2983 152.329 45.5232 151.32C44.6319 150.818 43.9067 150.365 43.412 150.044C43.1665 149.885 42.9776 149.757 42.8568 149.673L42.7284 149.583L42.7057 149.568L42.7019 149.564L40.2545 147.819L37.8223 149.594C37.709 149.677 35.7677 151.048 33.0181 152.347C30.2686 153.662 26.7146 154.836 23.6101 154.818L23.2626 154.814C19.8181 154.742 15.86 153.356 12.8763 151.902C11.3807 151.18 10.123 150.459 9.25812 149.93C8.82379 149.666 8.49143 149.447 8.27237 149.303L8.03443 149.141L7.98533 149.107L3.14722 155.917C3.27941 156.007 5.6437 157.688 9.24679 159.425C12.8612 161.151 17.6956 163.006 23.0435 163.164C23.2362 163.168 23.4212 163.172 23.6101 163.172C28.8145 163.149 33.4638 161.397 36.9158 159.746C38.2339 159.108 39.3708 158.481 40.2848 157.937C41.2365 158.507 42.4187 159.176 43.7821 159.856C45.5119 160.713 47.5212 161.586 49.7079 162.265C51.8947 162.938 54.2628 163.429 56.7517 163.432C57.1407 163.432 57.526 163.421 57.9112 163.395H57.915C63.8937 162.991 68.8716 161.03 72.3878 159.195C73.4642 158.632 74.3895 158.084 75.1826 157.582C75.8436 158.073 76.6065 158.594 77.5016 159.123C80.7723 161.061 85.6633 163.002 92.0084 163.172H92.0122C92.2048 163.176 92.3974 163.179 92.59 163.179C95.1961 163.176 97.6888 162.722 99.9813 162.084C103.418 161.121 106.425 159.735 108.619 158.583C109.102 158.33 109.537 158.088 109.937 157.865C110.938 158.432 112.207 159.104 113.706 159.792C117.328 161.427 122.181 163.157 127.533 163.176C133.686 163.176 138.645 161.367 142.044 159.565C143.094 159.01 143.981 158.458 144.74 157.948C145.518 158.455 146.425 159.01 147.479 159.58C150.791 161.355 155.387 163.251 160.75 163.406C160.928 163.41 161.105 163.414 161.279 163.414C163.87 163.41 166.374 162.938 168.72 162.281C172.232 161.291 175.386 159.867 177.716 158.685C180.042 157.503 181.531 156.562 181.614 156.506L177.844 150.572L177.153 149.439Z" fill="black"/>
</svg>
